<?xml version="1.0" standalone="no"?>
<!DOCTYPE svg PUBLIC "-//W3C//DTD SVG 20010904//EN"
 "http://www.w3.org/TR/2001/REC-SVG-20010904/DTD/svg10.dtd">
<svg version="1.0" xmlns="http://www.w3.org/2000/svg"
 width="1024.000000pt" height="1024.000000pt" viewBox="0 0 1024.000000 1024.000000"
 preserveAspectRatio="xMidYMid meet">

<g transform="translate(0.000000,1024.000000) scale(0.100000,-0.100000)"
fill="#000000" stroke="none">
<path d="M0 5120 l0 -5120 5120 0 5120 0 0 5120 0 5120 -5120 0 -5120 0 0
-5120z m5167 4652 l52 -7 -30 -74 c-16 -41 -28 -76 -25 -78 2 -2 19 5 37 16
19 12 51 21 72 21 l38 0 -3 -82 -3 -83 -29 -3 c-16 -2 -46 4 -68 14 -21 9 -41
14 -44 11 -4 -3 5 -26 20 -51 33 -56 33 -80 0 -113 -22 -22 -31 -24 -67 -19
-80 13 -100 59 -55 130 38 61 35 70 -12 46 -40 -21 -67 -25 -94 -14 -13 5 -16
22 -16 85 l0 79 36 0 c20 0 52 -10 71 -21 19 -12 36 -19 39 -17 2 3 -9 38 -26
78 -16 40 -27 76 -24 81 6 10 53 10 131 1z m-239 -348 c63 -51 81 -74 59 -74
-20 0 -127 89 -127 106 0 21 7 18 68 -32z m450 15 c-14 -22 -102 -89 -118 -89
-22 0 -7 21 48 64 63 50 91 61 70 25z m-766 -66 c3 -37 4 -38 43 -38 37 0 40
2 43 30 5 38 14 43 60 36 35 -6 37 -8 37 -46 0 -34 3 -40 23 -43 13 -2 32 4
41 12 25 23 31 11 31 -60 l0 -63 -42 15 c-24 8 -81 21 -128 30 -75 13 -96 13
-170 0 -111 -20 -198 -65 -276 -142 -71 -70 -111 -146 -127 -237 -9 -53 -8
-77 7 -143 28 -129 30 -174 7 -211 -12 -18 -27 -33 -36 -33 -22 0 -38 38 -30
76 6 36 -2 42 -34 24 -27 -14 -73 31 -69 67 2 20 11 29 38 38 24 8 36 19 38
33 3 20 -1 22 -46 22 l-50 0 -7 40 c-9 51 -2 60 46 60 33 0 41 4 49 26 6 14
10 27 10 29 0 2 -20 7 -45 11 -38 5 -45 10 -45 29 0 13 5 36 10 51 11 27 23
29 89 12 8 -1 20 8 27 22 13 23 11 26 -21 43 -39 20 -45 48 -19 85 20 28 36
28 72 -3 l29 -24 23 24 c21 22 21 25 6 40 -41 41 -37 68 13 95 23 12 27 10 53
-19 22 -25 32 -30 46 -22 45 26 45 27 27 55 -21 32 -15 50 25 71 30 15 33 15
51 -1 10 -9 19 -23 19 -30 0 -20 17 -26 51 -19 30 7 31 9 25 45 -3 20 -3 40 1
43 3 4 28 7 54 7 l48 0 3 -37z m942 -6 c9 -35 12 -37 48 -37 38 0 38 0 38 41
l0 40 48 -3 47 -3 3 -41 c2 -33 8 -43 25 -48 38 -10 45 -7 56 24 13 39 32 45
69 26 42 -21 45 -31 27 -65 -20 -39 -20 -38 16 -57 33 -17 34 -17 60 29 15 25
42 21 74 -13 l29 -30 -29 -30 -29 -30 21 -22 21 -21 30 22 c42 29 56 27 78
-15 l19 -36 -34 -29 c-32 -26 -34 -30 -23 -55 9 -19 17 -24 30 -18 9 4 30 8
46 8 25 1 31 -4 38 -33 12 -45 6 -57 -36 -65 -38 -7 -39 -9 -30 -43 5 -19 13
-23 45 -23 46 0 53 -9 44 -60 -7 -40 -7 -40 -51 -40 -40 0 -44 -2 -44 -24 0
-19 8 -27 35 -36 23 -8 35 -18 35 -30 0 -30 -22 -70 -39 -71 -21 -2 -23 -1
-43 6 -15 6 -16 2 -11 -27 4 -27 0 -41 -19 -63 l-25 -28 -21 31 c-34 47 -37
83 -12 174 46 171 10 309 -114 432 -139 139 -345 184 -551 121 -73 -22 -75
-21 -75 33 0 62 12 81 40 65 11 -7 31 -13 44 -13 23 0 25 4 23 42 -2 39 0 43
28 49 49 11 59 6 69 -34z m-340 -110 c16 -11 17 -22 11 -65 l-7 -52 -94 0 -94
0 0 58 c0 32 3 62 7 65 12 13 158 8 177 -6z m-510 -96 c16 -6 10 -10 -28 -20
-105 -26 -180 -81 -211 -154 -24 -57 -12 -95 51 -163 63 -68 70 -88 56 -146
-13 -50 -9 -57 16 -35 26 23 45 21 81 -9 33 -27 55 -84 49 -124 -4 -31 -39
-38 -73 -16 -54 36 -58 15 -9 -43 33 -38 40 -42 77 -39 34 2 45 9 65 38 21 31
23 43 19 100 -3 36 -15 103 -26 150 -52 216 -7 326 155 375 l44 13 0 -108 c0
-59 3 -121 6 -137 6 -28 4 -30 -53 -46 -32 -9 -66 -24 -76 -34 -15 -17 -15
-24 -1 -83 18 -75 20 -184 4 -224 -26 -70 -95 -126 -154 -126 -28 0 -33 -9
-14 -28 8 -8 60 -12 168 -12 l157 0 41 30 c52 38 54 53 6 44 -43 -8 -42 -5 16
66 21 25 41 56 45 69 l7 24 13 -29 c7 -16 31 -52 55 -79 42 -48 42 -67 0 -45
-45 24 -31 -18 18 -55 23 -17 48 -21 177 -26 148 -6 193 0 202 27 2 7 -13 14
-36 17 -128 17 -185 146 -147 332 15 73 15 79 -1 97 -9 11 -43 26 -74 35 l-57
16 10 36 c6 21 8 79 4 138 l-6 103 66 -24 c153 -56 181 -145 128 -406 -22
-108 -24 -133 -14 -169 15 -55 41 -81 84 -81 27 0 41 8 70 40 52 57 49 76 -8
48 -55 -27 -76 -20 -76 26 0 49 15 84 51 117 l31 29 35 -21 c19 -12 36 -19 39
-16 3 2 1 23 -4 45 -14 60 -5 86 53 151 29 33 56 73 60 89 16 74 -68 174 -178
211 -33 12 -70 21 -81 21 -20 1 -20 1 -2 11 30 18 182 5 247 -20 134 -51 219
-181 203 -307 -7 -52 -34 -84 -149 -178 l-47 -39 33 -16 c43 -21 46 -44 11
-105 -38 -69 -54 -77 -90 -43 -15 15 -33 27 -40 27 -17 0 -15 -46 4 -109 18
-62 13 -73 -19 -43 -29 27 -37 28 -37 2 0 -43 43 -66 154 -84 132 -20 132 -20
158 6 l22 22 -34 11 c-61 21 -89 118 -56 196 8 19 38 57 67 84 l52 50 -7 -63
c-4 -46 -13 -72 -32 -97 -31 -41 -29 -76 6 -88 22 -8 31 -4 67 33 49 49 82 51
97 7 12 -33 1 -57 -32 -72 -12 -5 -22 -15 -22 -21 0 -6 -16 -33 -35 -60 -19
-27 -33 -55 -30 -63 7 -17 -35 -121 -48 -121 -4 0 -65 9 -135 20 -70 10 -161
22 -202 26 -41 3 -106 10 -145 14 -113 13 -655 9 -820 -6 -82 -8 -202 -23
-267 -34 -64 -11 -122 -20 -130 -20 -17 0 -54 87 -50 118 2 14 -10 40 -28 65
-16 22 -30 48 -30 56 0 9 -15 23 -33 31 -35 16 -48 59 -26 86 19 24 46 16 90
-26 46 -44 60 -48 83 -24 23 22 20 52 -7 84 -22 26 -45 126 -32 139 9 9 97
-83 111 -116 32 -75 6 -174 -53 -195 -26 -9 -30 -15 -21 -25 28 -34 61 -36
213 -8 72 13 115 42 115 77 0 24 -5 23 -46 -8 -38 -30 -40 -27 -19 42 18 59
19 114 3 114 -7 0 -24 -12 -39 -26 -17 -16 -34 -24 -43 -21 -9 4 -31 36 -48
72 l-33 67 24 19 c13 10 29 19 37 19 28 0 12 20 -59 74 -40 30 -81 64 -92 76
-23 26 -32 126 -16 186 24 91 123 179 233 208 57 16 161 19 192 7z m487 -73
c19 -6 37 -16 41 -22 23 -33 0 -254 -36 -355 -20 -55 -21 -51 13 -51 34 0 85
-45 95 -85 11 -43 -31 -105 -71 -105 -14 0 -44 16 -67 35 -36 29 -45 33 -55
21 -6 -7 -29 -26 -51 -41 -37 -26 -41 -26 -63 -12 -13 8 -31 30 -40 48 -14 31
-14 35 3 69 22 43 59 70 96 70 18 0 25 4 21 14 -36 94 -50 162 -54 277 l-6
126 29 11 c39 14 104 14 145 0z m-2231 -171 c-21 -174 -93 -362 -187 -496 -61
-85 -147 -175 -253 -265 -122 -103 -150 -122 -160 -106 -4 7 -19 13 -32 13
-22 0 -24 2 -14 22 6 14 17 21 26 18 10 -3 11 -2 4 4 -6 4 -14 18 -18 31 -4
12 -11 20 -16 17 -13 -8 -1 86 22 179 67 271 299 546 554 655 38 16 73 26 77
22 4 -4 3 -47 -3 -94z m4418 68 c302 -141 542 -467 569 -772 4 -52 3 -73 -6
-73 -8 0 -8 -5 0 -19 20 -31 5 -52 -32 -44 -29 6 -30 5 -18 -15 10 -16 16 -18
26 -10 10 8 12 7 7 -6 -6 -16 -34 -23 -34 -8 0 5 -15 15 -32 24 -64 31 -268
221 -342 318 -126 164 -209 373 -223 558 -7 85 -2 88 85 47z m-3704 -251 c16
-43 8 -53 -66 -74 -138 -40 -276 -90 -374 -135 -104 -49 -113 -48 -128 2 -6
19 0 26 46 49 131 67 431 172 494 173 12 1 25 -6 28 -15z m3120 -38 c91 -30
208 -75 260 -99 100 -48 112 -63 80 -98 -14 -16 -20 -15 -97 21 -104 47 -226
91 -347 125 -112 32 -129 43 -112 80 7 14 20 25 31 25 11 0 94 -24 185 -54z
m-4552 -53 c19 -17 24 -62 9 -78 -5 -6 -11 -49 -13 -98 -7 -147 -44 -141 -51
8 -2 50 -8 103 -12 118 -5 20 -3 33 10 47 22 24 33 25 57 3z m5833 -3 c15 -17
16 -25 6 -64 -6 -25 -11 -79 -11 -121 0 -60 -3 -77 -16 -82 -25 -9 -34 16 -34
98 0 47 -6 88 -14 104 -31 60 25 113 69 65z m-5963 -171 c36 -71 57 -169 67
-304 8 -127 -3 -210 -44 -325 -30 -84 -144 -310 -156 -310 -4 0 -10 6 -13 13
-3 6 -3 2 -1 -10 3 -12 2 -24 -3 -27 -6 -3 -12 4 -15 15 -6 22 -28 18 -23 -4
1 -7 1 -9 -1 -4 -3 4 -8 5 -13 2 -4 -3 -6 4 -3 15 3 12 0 20 -6 20 -7 0 -9 -5
-5 -12 5 -7 1 -9 -13 -6 -12 3 -27 2 -34 -3 -11 -7 -11 -9 -1 -9 7 0 10 -5 6
-11 -3 -6 -15 -9 -25 -6 -11 3 -19 4 -19 2 0 -2 -3 -12 -7 -22 -6 -16 -5 -16
10 -4 12 9 17 10 17 2 0 -6 -13 -14 -30 -17 -30 -7 -36 -19 -31 -71 1 -12 -3
-24 -9 -28 -5 -3 -10 -11 -10 -16 0 -6 5 -7 11 -3 8 4 8 1 1 -12 -5 -11 -8
-36 -5 -57 2 -21 0 -45 -5 -54 -9 -14 -11 -14 -21 6 -24 44 -52 199 -58 317
-13 273 56 536 199 756 60 92 184 231 202 225 6 -2 23 -28 38 -58z m6134 -1
c104 -109 149 -172 215 -307 96 -197 138 -436 119 -668 -9 -108 -42 -259 -60
-277 -13 -13 -30 34 -20 54 5 9 4 24 -2 34 -9 17 -8 18 8 12 15 -6 17 -5 7 5
-17 17 -17 63 -1 53 7 -4 8 -3 4 4 -4 7 -2 12 3 12 6 0 11 5 11 11 0 8 -4 9
-13 0 -16 -12 -27 -5 -27 18 0 12 2 13 9 3 6 -10 11 -9 22 4 11 14 11 16 0 10
-8 -5 -17 -3 -22 5 -7 11 -9 11 -9 1 0 -7 -4 -10 -10 -7 -5 3 -10 15 -10 26 0
20 -15 26 -25 9 -3 -5 -12 -10 -18 -10 -7 0 -4 5 6 11 15 9 16 13 5 27 -8 10
-9 13 -1 9 6 -4 15 -3 18 3 4 6 3 10 -2 9 -28 -5 -42 2 -37 19 5 14 4 15 -5 2
-10 -13 -12 -13 -21 0 -8 12 -10 12 -10 -5 0 -16 -2 -17 -9 -5 -6 8 -8 17 -6
20 2 4 -2 7 -9 7 -8 0 -12 -6 -9 -13 3 -9 -3 -12 -21 -8 -20 3 -26 0 -26 -13
0 -15 2 -16 10 -3 6 9 10 10 10 3 0 -27 -19 -21 -46 14 -73 96 -184 362 -199
478 -12 93 -1 239 26 353 12 48 67 162 78 162 4 0 34 -28 67 -62z m-4386 -193
c86 -45 103 -171 32 -237 -96 -91 -255 -24 -255 107 0 114 120 183 223 130z
m2698 -12 c130 -97 36 -294 -125 -261 -112 23 -149 158 -69 245 52 57 130 63
194 16z m-3390 7 c2 0 -9 -21 -23 -47 -42 -77 -165 -223 -235 -280 -114 -93
-287 -164 -424 -176 -24 -2 -48 -7 -54 -11 -7 -4 -12 -1 -12 6 0 9 -3 9 -10
-2 -7 -10 -10 -11 -10 -2 0 8 -8 10 -25 6 -17 -4 -25 -2 -25 7 0 12 -2 12 -9
1 -6 -11 -10 -10 -15 3 -5 14 -9 15 -20 6 -20 -17 -16 8 7 42 9 15 17 30 17
34 0 15 55 90 100 139 147 159 326 243 595 278 23 3 111 1 143 -4z m4105 -5
c148 -22 213 -41 324 -96 149 -73 266 -189 342 -336 18 -35 18 -43 6 -59 -13
-18 -14 -17 -8 5 l6 25 -22 -21 c-14 -13 -33 -20 -49 -18 -15 2 -33 -2 -39 -7
-7 -6 -13 -7 -13 -2 0 5 -25 10 -56 12 -71 3 -208 48 -293 96 -135 77 -229
167 -336 324 -67 99 -55 106 138 77z m-3940 -146 c44 -12 102 -60 124 -103 9
-17 19 -53 22 -81 6 -48 10 -54 121 -159 63 -61 149 -143 191 -183 l76 -73
129 0 129 0 92 -92 93 -93 0 -102 0 -103 -35 0 -35 0 0 83 0 82 -71 73 -70 72
-132 0 -133 0 -59 61 c-33 33 -121 119 -196 190 l-137 129 -34 -34 c-87 -87
-254 -62 -307 47 -52 107 3 242 115 282 48 17 68 18 117 4z m3743 -24 c90 -53
122 -170 74 -265 -54 -105 -214 -129 -306 -45 l-37 34 -189 -182 c-213 -205
-196 -196 -363 -195 l-100 0 -67 -73 -68 -73 0 -83 0 -83 -35 0 -35 0 0 103 0
103 91 92 90 92 127 0 127 0 75 72 c311 297 320 307 320 346 1 77 56 151 135
180 43 16 111 6 161 -23z m-1691 -25 c228 -13 529 -56 577 -81 12 -6 18 -21
18 -44 0 -53 -19 -57 -151 -34 -212 37 -390 50 -704 49 -165 0 -311 -2 -325
-4 -14 -2 -63 -7 -110 -11 -110 -9 -139 -13 -288 -39 -98 -18 -125 -13 -134
22 -8 28 9 61 35 71 13 5 75 17 138 26 63 9 125 18 139 20 41 7 269 25 355 28
192 7 290 6 450 -3z m-1491 -136 c3 -9 6 -28 6 -42 0 -20 18 -43 73 -94 l72
-68 105 -1 c58 -1 153 -2 212 -3 67 -1 112 -6 119 -13 9 -9 13 -92 14 -285 1
-150 0 -279 -3 -285 -2 -7 -19 -13 -38 -13 l-34 0 0 260 0 260 -203 0 -203 0
-97 96 c-96 95 -97 96 -97 144 0 38 4 50 18 53 34 9 50 7 56 -9z m2534 -42 l3
-54 -92 -94 -93 -94 -203 0 -203 0 0 -260 0 -260 -41 0 -40 0 3 290 c2 226 6
293 16 299 7 4 108 8 224 9 l211 0 66 64 c82 79 81 77 81 114 0 38 7 46 40 42
23 -3 25 -8 28 -56z m-4168 30 c0 -23 -204 -391 -354 -637 -84 -139 -198 -363
-266 -525 -142 -338 -298 -845 -302 -982 -1 -26 -24 -39 -40 -23 -6 6 16 141
38 235 40 172 133 447 251 745 69 173 182 401 270 543 137 223 218 361 287
497 40 77 75 146 79 152 7 11 37 7 37 -5z m5831 -109 c106 -201 130 -244 212
-378 217 -353 252 -420 357 -673 132 -322 244 -667 290 -893 53 -264 65 -391
64 -684 0 -154 -6 -325 -12 -380 -7 -55 -17 -148 -23 -206 -8 -75 -15 -106
-25 -106 -20 0 -21 14 -13 102 83 845 35 1212 -261 2015 -66 178 -261 571
-367 740 -104 165 -197 329 -267 468 -49 98 -54 112 -37 112 14 0 35 -30 82
-117z m-3421 -383 l0 -300 -35 0 -35 0 0 284 c0 156 -3 291 -6 300 -5 13 2 16
35 16 l41 0 0 -300z m180 0 l0 -300 -35 0 -35 0 0 300 0 300 35 0 35 0 0 -300z
m188 -2 l2 -298 -30 0 c-16 0 -33 1 -37 3 -4 1 -6 76 -6 167 1 91 2 225 2 298
l1 133 33 -3 32 -3 3 -297z m252 3 l0 -299 -35 -4 -35 -4 0 303 0 303 35 0 35
0 0 -299z m190 -1 l0 -300 -40 0 -39 0 1 300 2 300 38 0 38 0 0 -300z m180 0
l0 -300 -35 0 c-21 0 -35 5 -36 13 0 6 -1 141 -2 300 l-2 287 38 0 37 0 0
-300z m-2823 216 c21 -20 -126 -199 -222 -272 -135 -102 -342 -181 -493 -189
-40 -3 -77 -7 -82 -10 -6 -4 -10 -1 -10 5 0 6 -4 9 -9 5 -11 -6 -80 26 -81 38
0 5 5 5 12 1 7 -4 8 -3 4 5 -11 18 -36 -6 -29 -27 5 -14 4 -15 -8 -4 -12 11
-9 22 19 75 110 208 303 338 567 380 44 7 324 1 332 -7z m4930 3 c222 -30 400
-140 513 -314 24 -39 48 -72 52 -75 11 -8 22 -70 13 -70 -4 0 -14 8 -22 18 -8
9 -11 11 -7 3 5 -10 3 -13 -8 -8 -9 3 -26 -1 -38 -10 -12 -8 -32 -13 -46 -10
-13 2 -24 0 -24 -5 0 -5 -5 -6 -11 -3 -6 4 -37 9 -68 10 -234 13 -537 186
-666 380 -51 78 -52 83 -13 88 71 8 250 7 325 -4z m-4449 -110 c52 -26 94 -84
101 -142 l6 -42 153 -3 c152 -3 153 -3 181 -30 15 -15 50 -48 79 -74 l51 -48
89 0 90 0 5 -27 c3 -16 3 -31 0 -35 -2 -5 -54 -8 -115 -8 l-111 0 -73 70 -72
70 -123 1 c-68 0 -134 2 -146 3 -15 2 -33 -9 -54 -32 -37 -40 -101 -71 -146
-72 l-33 0 0 -117 0 -116 70 -73 c63 -65 70 -76 64 -101 -4 -15 -9 -31 -13
-35 -4 -4 -50 34 -104 86 l-97 93 0 151 c0 93 -4 152 -10 152 -5 0 -23 24 -40
53 -79 138 10 295 169 297 19 0 54 -10 79 -21z m3816 -16 c94 -67 109 -198 32
-289 -24 -29 -25 -39 -30 -172 -3 -78 -10 -150 -15 -160 -14 -26 -177 -182
-190 -182 -6 0 -11 18 -11 42 0 38 6 48 70 114 l70 72 0 111 0 111 -28 0 c-54
0 -121 30 -156 71 l-34 40 -143 -6 -143 -6 -74 -70 -74 -69 -109 0 -109 0 0
35 0 35 91 0 91 0 77 75 77 75 152 0 152 0 0 28 c0 15 12 52 26 81 23 44 35
57 78 78 67 32 142 27 200 -14z m-5737 -61 c108 -160 170 -445 144 -664 -5
-48 -23 -127 -40 -175 -48 -144 -49 -147 -65 -134 -11 9 -15 9 -18 -1 -4 -10
-8 -10 -21 1 -11 9 -17 10 -17 2 0 -6 5 -11 10 -11 25 0 6 -16 -21 -18 -38 -3
-49 -9 -48 -25 0 -9 2 -9 6 1 7 19 22 14 20 -6 -1 -20 -28 -26 -39 -8 -6 8 -8
8 -8 -1 0 -6 6 -18 13 -25 6 -7 13 -20 15 -28 3 -12 1 -13 -9 -2 -7 6 -17 12
-22 12 -5 0 -1 -7 8 -16 18 -18 15 -27 -6 -19 -41 16 -99 139 -125 265 -23
106 -25 412 -5 505 40 183 142 423 175 412 6 -2 30 -31 53 -65z m7570 -9 c56
-106 90 -198 113 -312 50 -247 25 -542 -59 -709 -30 -59 -66 -100 -78 -89 -4
4 2 14 13 22 18 14 18 14 -6 16 l-25 1 25 8 c19 6 20 8 6 9 -11 1 -16 6 -13
14 3 8 -1 14 -9 14 -9 0 -13 -6 -10 -14 3 -8 1 -11 -4 -8 -6 4 -10 12 -9 18 1
7 -1 20 -6 30 -6 15 -10 16 -16 5 -6 -9 -9 -7 -9 10 0 12 -5 22 -11 22 -5 0
-8 -4 -4 -9 3 -5 1 -12 -4 -15 -5 -3 -12 6 -15 20 -7 25 -8 25 -20 9 -12 -16
-17 -10 -45 63 -46 119 -61 193 -68 323 -9 187 30 366 118 528 38 72 75 121
89 121 3 0 25 -35 47 -77z m-6507 -348 c0 -3 -12 -29 -26 -58 -79 -157 -224
-301 -384 -382 -61 -31 -191 -77 -198 -71 -2 3 -15 1 -28 -4 -18 -7 -22 -6
-17 5 3 8 10 12 16 8 6 -4 7 -1 2 6 -5 9 -14 6 -32 -11 -18 -17 -22 -18 -17
-5 3 10 1 17 -6 17 -6 0 -8 5 -5 10 4 6 11 8 16 5 5 -4 17 -1 26 5 14 8 14 10
3 9 -8 -1 -20 -1 -27 0 -19 2 -53 43 -53 63 0 10 -7 18 -16 18 -11 0 -14 -7
-11 -28 3 -17 0 -29 -7 -29 -12 0 -14 47 -2 66 5 7 5 15 2 18 -3 4 -6 1 -6 -5
0 -7 -7 -12 -16 -12 -20 0 -15 15 29 89 62 104 201 198 357 240 131 35 400 66
400 46z m5547 -10 c139 -19 261 -47 321 -76 109 -53 219 -161 257 -252 20 -48
19 -54 -7 -60 -21 -6 -22 -5 -5 7 17 13 17 14 0 20 -10 4 -14 4 -10 0 4 -4 2
-13 -4 -20 -6 -8 -9 -20 -6 -28 4 -11 1 -13 -10 -9 -11 5 -14 3 -8 -6 4 -8 -4
-6 -21 4 -17 10 -22 11 -11 2 17 -14 24 -33 8 -23 -12 8 -39 -26 -36 -45 2
-12 -6 -15 -37 -13 -147 7 -330 105 -470 252 -70 73 -147 187 -163 240 -6 20
-3 22 39 22 25 0 98 -7 163 -15z m-5066 -86 c17 -17 20 -28 14 -58 -4 -20 -9
-70 -10 -112 -2 -69 0 -80 21 -102 34 -37 64 -89 64 -113 0 -24 141 -124 202
-143 40 -13 48 -26 48 -77 0 -32 -2 -34 -27 -28 -16 3 -72 36 -125 72 -54 36
-99 64 -101 61 -41 -58 -65 -83 -97 -99 -43 -22 -122 -26 -167 -9 -91 34 -138
159 -98 256 29 68 76 103 155 112 l45 6 -2 75 c0 41 -4 91 -8 111 -6 31 -3 39
16 53 31 21 45 20 70 -5z m3659 -13 c108 -49 197 -150 226 -258 12 -45 14
-320 14 -1724 0 -1607 -1 -1673 -19 -1725 -48 -141 -153 -242 -287 -278 -29
-8 -447 -11 -1400 -11 -1455 0 -1392 -2 -1490 48 -96 50 -170 132 -208 230
l-21 57 0 1685 c0 1595 1 1688 18 1736 10 29 29 60 42 70 14 10 25 23 25 29 0
6 8 17 18 26 9 8 28 30 42 48 26 34 76 65 144 86 33 11 321 13 1436 12 l1395
-2 65 -29z m784 18 c19 -18 21 -57 5 -86 -7 -13 -8 -45 -4 -88 l7 -68 49 -4
c127 -13 205 -153 150 -274 -19 -43 -68 -86 -110 -99 -39 -12 -119 -7 -150 9
-26 14 -74 63 -96 99 -9 15 -23 8 -107 -53 -54 -39 -111 -73 -127 -76 -26 -5
-29 -3 -33 26 -6 38 20 75 59 85 16 3 65 30 110 58 73 47 82 56 92 95 6 23 27
60 47 82 l35 39 -4 88 c-2 48 -8 100 -12 115 -13 49 53 89 89 52z m-5714 -304
c0 -5 -2 -10 -4 -10 -3 0 -8 5 -11 10 -3 6 -1 10 4 10 6 0 11 -4 11 -10z m70
-50 c0 -5 -5 -10 -11 -10 -5 0 -7 5 -4 10 3 6 8 10 11 10 2 0 4 -4 4 -10z m20
-26 c0 -8 -19 -13 -24 -6 -3 5 1 9 9 9 8 0 15 -2 15 -3z m-833 -96 c142 -156
256 -390 294 -608 14 -84 19 -379 6 -425 -7 -26 -10 -27 -18 -12 -6 9 -17 17
-25 17 -8 0 -13 4 -10 8 2 4 0 14 -6 22 -8 12 -9 12 -4 -2 3 -10 1 -18 -4 -18
-5 0 -7 -8 -4 -17 4 -11 2 -14 -3 -7 -9 12 -52 13 -70 1 -15 -10 -17 2 -3 23
6 9 13 11 18 5 11 -15 42 -15 42 1 0 7 -8 11 -20 9 -14 -3 -20 2 -20 13 -1 15
-2 15 -15 -2 -8 -11 -19 -15 -27 -10 -10 6 -11 5 -1 -8 7 -8 10 -17 7 -21 -3
-3 -1 -15 6 -26 8 -15 8 -26 0 -39 -10 -15 -10 -14 -5 5 3 12 2 24 -3 26 -4 3
-7 -6 -6 -21 2 -41 3 -44 14 -37 6 3 7 -1 4 -9 -3 -9 -2 -16 4 -16 5 0 13 -7
16 -16 6 -15 4 -15 -11 -3 -16 13 -17 12 -4 -3 7 -10 20 -18 28 -18 8 0 12 -4
8 -9 -3 -5 4 -16 16 -24 11 -9 19 -23 17 -32 -2 -14 -14 -9 -63 27 -141 104
-254 312 -301 554 -23 116 -22 346 0 464 26 138 67 250 91 250 7 0 30 -19 52
-42z m8502 -55 c45 -146 55 -212 55 -393 0 -120 -5 -188 -17 -248 -50 -237
-169 -442 -311 -538 -59 -40 -71 -29 -26 22 17 20 29 42 26 50 -3 9 0 11 11 7
11 -4 14 -3 9 5 -4 7 -1 15 8 18 12 5 13 9 3 19 -7 7 -16 10 -21 7 -5 -3 -6 0
-2 7 4 6 12 9 17 6 5 -4 9 4 9 17 0 18 2 20 10 8 13 -20 13 -8 0 25 -6 17 -16
25 -24 22 -8 -3 -26 8 -41 26 -16 18 -25 24 -22 15 4 -10 5 -18 3 -18 -3 0
-12 -3 -20 -6 -12 -5 -15 -2 -10 12 5 15 4 16 -4 5 -6 -8 -8 -20 -5 -27 3 -9
-3 -11 -19 -7 -16 3 -19 2 -9 -5 9 -6 10 -12 2 -16 -19 -12 -34 99 -32 241 3
284 113 576 293 786 70 81 79 77 117 -40z m-7275 30 c-21 -123 -100 -296 -202
-443 -106 -153 -309 -345 -408 -386 -31 -13 -34 -13 -34 3 0 16 -2 16 -11 3
-9 -12 -10 -12 -5 3 3 10 6 25 6 33 0 8 6 14 14 14 8 0 18 5 22 12 5 7 3 8 -5
4 -7 -5 -18 -1 -25 10 -13 17 -14 17 -20 -4 -4 -12 -4 -26 -1 -32 3 -5 -1 -10
-9 -10 -11 0 -13 6 -7 28 6 19 4 37 -5 53 -10 18 -13 20 -14 7 0 -9 5 -20 10
-23 13 -8 -6 -35 -24 -35 -6 0 -4 5 4 11 12 8 10 10 -10 5 -24 -5 -24 -4 -6
10 17 12 18 16 6 27 -10 9 -12 9 -6 0 4 -8 1 -13 -8 -13 -9 0 -16 6 -16 13 0
7 -3 8 -8 2 -4 -5 -14 -11 -23 -13 -30 -5 39 215 104 330 64 114 184 236 304
308 65 40 229 97 309 109 33 5 63 9 67 10 4 0 5 -16 1 -36z m6104 6 c40 -10
117 -41 171 -69 248 -127 408 -340 455 -603 7 -36 6 -38 -13 -32 -17 5 -21 2
-21 -14 0 -11 -4 -22 -9 -25 -5 -4 -7 2 -4 13 3 10 -1 22 -8 26 -8 5 -10 4 -5
-3 4 -6 0 -24 -8 -39 -8 -16 -15 -23 -16 -16 0 7 -7 10 -15 7 -8 -4 -15 -2
-15 4 0 5 -7 13 -16 16 -13 5 -15 2 -9 -11 4 -10 7 -29 6 -43 0 -18 2 -21 8
-11 5 8 11 9 15 3 3 -5 -6 -18 -21 -27 -24 -16 -28 -16 -61 -1 -139 67 -355
301 -471 510 -49 89 -121 282 -121 325 0 19 4 21 43 15 23 -4 75 -15 115 -25z
m-4980 -321 l3 -38 -156 0 -156 0 -125 -111 c-188 -168 -187 -169 168 -169
l268 0 0 -40 0 -40 -276 4 -275 3 -14 -27 c-19 -37 -80 -88 -113 -96 -15 -3
-33 -8 -40 -10 -7 -2 -34 1 -60 7 -123 27 -184 152 -132 267 25 55 39 68 96
94 56 24 129 19 181 -13 l33 -21 38 34 c21 18 80 70 131 116 l91 82 168 -2
167 -3 3 -37z m4162 -73 c71 -63 132 -115 134 -115 3 0 20 9 39 20 18 11 57
22 86 26 167 18 274 -186 165 -316 -85 -101 -257 -80 -318 38 l-15 28 -280 -4
-281 -4 0 41 0 41 275 0 275 0 12 26 c14 30 25 17 -155 172 l-96 82 -155 0
-156 0 0 40 0 40 170 0 169 0 131 -115z m-4160 -70 l0 -45 -44 0 c-44 0 -55
12 -56 58 0 15 35 30 73 31 26 1 27 -1 27 -44z m3784 29 c14 -36 6 -64 -19
-74 -48 -18 -70 -7 -73 35 -4 43 8 55 54 55 20 0 34 -6 38 -16z m-5050 -251
c8 -16 30 -44 50 -62 l36 -35 0 -103 0 -103 288 -2 287 -3 3 -33 3 -32 -338 2
-338 3 -3 38 c-2 21 1 37 7 37 7 0 11 33 11 88 l0 88 -52 25 c-47 21 -53 28
-56 59 -4 40 16 60 60 60 20 0 31 -8 42 -27z m6321 7 c30 -34 0 -99 -47 -100
-10 0 -27 -9 -38 -20 -17 -17 -20 -33 -20 -100 0 -47 4 -80 10 -80 11 0 13
-39 4 -64 -5 -14 -45 -16 -341 -16 l-334 0 3 33 3 32 293 3 293 2 -2 107 -3
107 35 30 c19 17 42 43 52 59 21 33 65 37 92 7z m555 -50 c0 -5 -4 -10 -10
-10 -5 0 -10 5 -10 10 0 6 5 10 10 10 6 0 10 -4 10 -10z m-5610 -85 l0 -45
-44 0 c-49 0 -64 18 -52 66 6 21 12 24 51 24 l45 0 0 -45z m3788 3 l-3 -43
-47 -3 -48 -3 0 39 c0 21 3 42 7 45 3 4 26 7 50 7 l44 0 -3 -42z m-4100 20 c5
-7 13 -24 17 -38 10 -34 90 -107 141 -130 23 -10 44 -24 47 -32 2 -7 4 3 3 22
l-1 35 53 3 52 3 0 -45 0 -46 -87 -2 c-49 -1 -97 -1 -108 -1 -11 1 -45 26 -75
56 -31 31 -69 59 -85 63 -45 10 -55 23 -55 65 0 26 6 41 18 48 24 14 68 13 80
-1z m4394 -5 c27 -24 24 -79 -7 -99 -13 -8 -29 -13 -35 -9 -6 3 -42 -23 -81
-58 l-71 -65 -72 -1 c-39 0 -83 2 -98 5 -25 5 -28 10 -28 49 0 40 2 44 30 50
40 9 70 -2 70 -26 0 -16 4 -19 23 -13 48 15 64 24 106 63 24 23 47 41 52 41 4
0 11 10 15 23 16 54 60 73 96 40z m-6056 -80 c-18 -97 -28 -358 -23 -590 3
-142 8 -269 11 -283 12 -53 19 -265 8 -255 -13 12 -39 158 -52 297 -15 149
-12 531 5 699 8 79 15 147 15 152 0 4 9 7 21 7 17 0 20 -5 15 -27z m1503 -17
c7 -8 15 -26 19 -39 4 -14 49 -58 110 -106 57 -45 106 -89 109 -98 7 -17 -21
-43 -46 -43 -9 0 -60 41 -114 90 -63 59 -105 90 -120 90 -13 0 -28 5 -35 12
-17 17 -15 74 4 92 19 20 58 21 73 2z m4713 -17 c19 -25 19 -28 4 -58 -15 -27
-32 -37 -59 -32 -4 1 -54 -39 -110 -89 -56 -49 -108 -90 -115 -90 -22 0 -52
20 -52 35 0 7 48 53 108 100 59 48 111 94 116 103 28 53 38 63 63 60 14 -2 35
-15 45 -29z m-5665 -116 c-6 -170 -36 -293 -107 -439 -73 -150 -220 -337 -251
-318 -6 3 -16 -1 -22 -9 -11 -14 -14 -14 -27 1 -13 14 -13 15 1 10 10 -4 16
-1 16 8 0 8 -3 12 -5 9 -3 -3 -11 3 -19 13 -14 16 -14 16 -8 -3 6 -20 6 -20
-13 0 -11 11 -18 22 -16 24 2 2 -1 12 -7 23 -8 15 -14 17 -24 8 -7 -6 -19 -9
-26 -8 -9 2 -13 -4 -11 -17 3 -17 1 -18 -10 -7 -17 17 -16 191 2 277 46 225
216 435 434 536 103 47 99 51 93 -108z m6613 114 c122 -50 272 -176 341 -285
95 -150 126 -271 120 -472 -1 -50 -3 -53 -16 -36 -8 10 -12 24 -8 30 3 6 2 7
-3 3 -5 -5 -9 -17 -9 -28 0 -10 -4 -18 -8 -16 -13 3 -27 -28 -23 -50 4 -16 -1
-20 -19 -17 -13 1 -29 5 -34 9 -7 3 -8 0 -5 -9 7 -19 -7 -21 -24 -4 -10 10
-15 10 -22 -2 -7 -12 -22 -2 -72 50 -82 84 -150 188 -203 308 -64 146 -86 244
-92 405 -6 156 -10 150 77 114z m680 -102 c13 -14 19 -25 14 -25 -8 1 -50 50
-41 50 2 0 14 -11 27 -25z m-8046 -31 c3 -8 2 -12 -4 -9 -6 3 -10 10 -10 16 0
14 7 11 14 -7z m2174 -81 l3 -43 -50 0 -51 0 0 38 c0 49 5 54 55 50 39 -3 40
-4 43 -45z m3792 2 c0 -43 -1 -44 -35 -51 -52 -9 -65 -1 -65 44 0 21 3 42 7
45 3 4 26 7 50 7 l43 0 0 -45z m-4264 -31 c43 -37 89 -73 101 -81 26 -17 273
-29 273 -13 0 5 23 10 51 10 l50 0 -3 -42 -3 -43 -190 -3 -190 -2 -80 71 c-44
38 -95 77 -113 85 -28 12 -91 15 -364 13 -270 -1 -332 1 -339 12 -12 19 -11
25 7 43 13 14 61 16 368 16 l352 0 80 -66z m5428 50 c18 -18 21 -40 6 -49 -5
-3 -164 -6 -353 -5 l-343 0 -37 -27 c-20 -16 -65 -54 -100 -86 l-65 -57 -183
2 -184 3 -3 39 c-2 24 2 42 10 47 22 15 78 10 84 -6 5 -12 28 -15 116 -15 63
0 119 5 131 11 12 7 49 35 81 63 121 105 73 95 473 96 307 0 354 -2 367 -16z
m-7409 -131 c158 -123 275 -262 350 -420 67 -139 117 -360 88 -385 -8 -6 -13
-7 -12 -2 1 5 1 18 0 28 -1 20 -1 20 -16 0 -9 -12 -14 -14 -15 -6 0 8 -5 10
-12 5 -7 -4 -22 -9 -32 -10 -11 -2 -25 -8 -31 -13 -7 -5 -15 -7 -18 -3 -4 3
-7 1 -7 -5 0 -7 5 -12 10 -12 6 0 10 -7 10 -16 0 -9 8 -23 18 -31 12 -11 13
-14 2 -11 -8 3 -24 -4 -34 -15 -19 -20 -19 -20 10 -13 23 6 27 5 16 -5 -20
-21 -14 -31 11 -18 19 11 20 10 9 -3 -10 -13 -8 -19 18 -39 35 -28 38 -39 11
-39 -31 0 -160 93 -233 167 -178 182 -299 428 -343 698 -15 91 -20 256 -9 268
12 11 118 -50 209 -120z m8812 0 c-12 -263 -78 -467 -225 -693 -57 -88 -236
-259 -312 -298 -36 -18 -66 -29 -68 -24 -3 11 55 72 68 72 5 0 7 11 4 25 -4
22 2 29 26 27 3 0 6 11 6 24 1 15 -2 21 -9 17 -6 -4 -8 0 -4 10 10 25 -2 47
-21 39 -15 -5 -15 -3 -4 11 12 14 11 15 -12 11 -22 -4 -24 -1 -21 23 l4 28
-11 -25 c-16 -35 -16 -34 -33 -20 -18 15 -20 -1 -2 -19 10 -10 8 -11 -8 -5
-16 6 -18 5 -10 -7 6 -8 2 -7 -7 3 -20 22 -17 80 11 188 77 298 282 560 555
706 33 19 65 34 70 34 5 0 6 -54 3 -127z m-6937 -110 c60 -32 92 -75 72 -95
-10 -10 -22 -7 -61 15 -79 44 -155 32 -199 -31 -45 -62 -33 -154 26 -197 25
-19 43 -20 240 -20 l212 0 78 -63 c80 -65 112 -77 112 -42 0 17 7 20 51 20
l50 0 -3 -42 -3 -43 -96 -3 c-95 -3 -96 -2 -129 28 -77 72 -61 68 -282 70
-229 1 -244 5 -307 76 -42 48 -56 99 -46 168 l7 41 -128 -3 -127 -3 -84 -76
c-46 -41 -83 -81 -83 -89 0 -17 -32 -34 -64 -34 -28 0 -56 33 -56 65 0 28 43
67 68 63 13 -2 41 15 78 47 32 28 74 62 92 78 l35 27 151 -2 151 -3 38 29 c67
51 132 57 207 19z m4990 12 c14 -4 40 -18 58 -32 31 -24 40 -25 191 -26 l158
-2 44 -37 c24 -20 64 -54 89 -76 36 -32 51 -39 72 -35 20 4 33 -1 52 -20 32
-32 33 -51 1 -82 -35 -36 -58 -31 -117 28 -29 28 -80 73 -112 100 l-58 47
-123 0 -122 0 6 -37 c14 -75 -28 -166 -98 -213 -35 -24 -44 -25 -247 -30
l-211 -5 -34 -28 c-102 -82 -86 -76 -181 -70 l-88 6 0 43 0 44 50 0 c47 0 55
-5 51 -32 -4 -25 43 0 104 55 l69 62 195 0 c242 1 233 0 270 31 91 76 45 228
-73 241 -36 4 -57 0 -99 -21 -62 -30 -77 -32 -77 -10 0 45 62 95 130 105 46 6
57 6 100 -6z m-4755 -146 c132 0 247 2 257 6 9 3 31 5 50 3 31 -3 33 -5 33
-42 l0 -39 -312 2 c-240 2 -313 -1 -319 -10 -4 -7 -3 -14 2 -16 5 -2 16 -8 24
-13 13 -9 13 -11 0 -20 -69 -45 -148 62 -89 121 18 18 29 20 68 15 25 -3 154
-6 286 -7z m4732 -15 c35 -48 -5 -129 -60 -122 -39 6 -44 17 -17 38 23 17 23
19 6 26 -10 4 -149 5 -309 2 -161 -3 -298 -3 -304 -1 -12 4 -19 64 -9 74 2 2
156 3 342 2 312 -1 339 -2 351 -19z m-4387 -160 l0 -45 -47 3 c-46 3 -48 4
-51 37 -4 40 9 51 61 51 l37 0 0 -46z m3790 1 l0 -45 -50 0 -50 0 0 45 0 45
50 0 50 0 0 -45z m-5687 -62 c-4 -11 -3 -14 5 -9 8 5 10 1 5 -10 -4 -11 -8
-13 -11 -6 -2 7 -8 10 -12 7 -5 -3 -12 0 -16 6 -4 7 -3 9 3 6 6 -4 13 0 17 8
3 8 8 15 10 15 3 0 2 -7 -1 -17z m435 -90 c88 -206 111 -483 59 -709 -35 -155
-125 -329 -159 -308 -8 5 -9 1 -5 -10 6 -14 4 -15 -15 -5 -18 10 -20 9 -14 -7
4 -10 4 -15 0 -11 -4 4 -16 -1 -26 -10 -15 -14 -19 -14 -16 -3 2 8 -3 14 -9
13 -7 -2 -13 2 -13 8 0 5 -5 7 -12 3 -7 -4 -8 -3 -4 4 4 8 15 8 31 2 16 -6 27
-6 31 2 4 6 3 8 -4 4 -6 -3 -14 -1 -18 5 -3 6 -19 9 -34 5 -25 -4 -31 0 -50
32 -29 49 -59 168 -66 267 -12 146 33 349 108 500 65 129 162 265 188 265 4 0
17 -21 28 -47z m6751 -78 c140 -203 201 -410 188 -634 -4 -58 -14 -133 -22
-166 -19 -69 -62 -148 -76 -140 -5 4 -9 1 -9 -4 0 -6 -10 -11 -22 -12 -13 0
-17 -3 -10 -6 22 -9 13 -18 -18 -18 -22 0 -29 4 -25 14 4 11 3 11 -9 2 -8 -7
-21 -9 -27 -5 -9 5 -7 10 7 15 17 7 17 8 1 8 -10 1 -15 6 -12 11 3 6 1 10 -4
10 -6 0 -11 -6 -11 -12 -1 -23 -42 36 -76 107 -18 39 -45 111 -60 160 -26 84
-28 102 -28 290 -1 178 2 209 22 283 23 85 63 184 84 210 14 17 30 0 107 -113z
m-6000 22 c25 -17 91 -69 145 -115 l99 -84 221 2 c122 2 227 2 234 1 9 -1 12
-13 10 -38 l-3 -38 -241 -3 -241 -2 -109 87 c-60 48 -111 90 -114 93 -3 3 -21
18 -41 33 l-35 27 -250 2 -249 3 0 30 0 30 90 5 c50 3 168 4 264 2 l174 -3 46
-32z m5674 24 c5 -5 7 -19 5 -32 l-3 -24 -274 -3 -275 -2 -60 -52 c-34 -29
-63 -55 -66 -58 -3 -3 -38 -34 -78 -68 l-73 -62 -225 0 -225 0 3 43 3 42 213
-4 213 -3 52 48 c133 122 203 179 226 185 39 9 555 -1 564 -10z m-4979 -67
c11 -4 16 -19 16 -50 l0 -44 -44 0 c-49 0 -64 19 -50 63 11 34 39 46 78 31z
m3784 0 c16 -5 22 -14 22 -34 0 -51 -9 -60 -56 -60 l-44 0 0 44 c0 53 19 65
78 50z m-4604 -54 c30 -11 44 -53 26 -75 -14 -17 -56 -20 -65 -5 -4 6 -75 10
-179 10 -217 0 -236 3 -236 40 0 16 6 31 13 33 23 10 416 7 441 -3z m5794 1
c8 -4 12 -19 10 -32 l-3 -24 -208 -6 c-137 -5 -212 -11 -221 -19 -8 -6 -27
-10 -43 -8 -36 4 -43 43 -13 76 20 21 26 22 243 22 122 0 228 -4 235 -9z
m-7058 -91 c-8 -5 -19 -10 -25 -10 -5 0 -3 5 5 10 8 5 20 10 25 10 6 0 3 -5
-5 -10z m60 6 c0 -2 -9 -6 -20 -9 -11 -3 -18 -1 -14 4 5 9 34 13 34 5z m-553
-116 c110 -30 242 -91 338 -154 104 -70 251 -207 311 -292 50 -70 123 -222
129 -266 6 -50 -4 -60 -31 -31 -20 21 -25 23 -30 10 -9 -24 -42 0 -37 27 3 20
3 20 -6 1 -4 -11 -7 -23 -4 -27 4 -8 -32 -30 -39 -23 -3 3 -4 -8 -3 -25 1 -16
-2 -27 -7 -24 -4 3 -8 3 -8 0 0 -2 -3 -11 -6 -20 -3 -9 -1 -16 6 -16 6 0 8 5
5 10 -3 6 -2 10 2 10 10 0 38 -42 35 -52 -2 -8 40 -37 119 -81 50 -28 76 -54
65 -64 -9 -9 -235 105 -330 167 -207 135 -354 286 -464 475 -61 106 -101 212
-136 368 -8 33 -4 33 91 7z m8973 6 c0 -24 -49 -186 -79 -261 -86 -214 -268
-427 -487 -571 -98 -64 -363 -199 -372 -189 -7 7 55 65 69 65 16 0 128 72 133
86 3 8 1 12 -4 9 -5 -3 -7 1 -4 9 4 11 12 13 30 6 25 -10 32 -2 13 17 -13 13
-3 36 12 28 5 -4 4 5 -3 19 -6 14 -14 26 -18 26 -12 0 -30 -26 -23 -33 3 -4 1
-7 -5 -7 -6 0 -16 9 -22 19 -7 13 -16 17 -31 14 -16 -4 -20 -2 -17 8 6 15 10
15 43 4 17 -6 16 -3 -5 15 -14 13 -26 17 -28 11 -2 -6 -9 -8 -14 -5 -6 4 -8 2
-4 -4 3 -6 2 -13 -4 -17 -5 -3 -10 -2 -10 3 0 6 -7 13 -16 16 -14 5 -15 4 -5
-8 8 -10 9 -16 1 -21 -5 -3 -10 0 -11 7 0 7 -4 4 -9 -7 -17 -40 -10 12 11 81
42 141 125 261 277 405 132 125 323 230 486 269 82 20 96 20 96 6z m-6665 -89
l280 -3 3 -37 3 -37 -230 0 c-146 0 -247 -4 -275 -12 -37 -10 -51 -9 -88 5
-38 15 -88 17 -366 17 l-322 0 0 40 0 40 358 -5 c196 -3 483 -7 637 -8z m5247
-11 c11 -57 15 -56 -327 -56 -262 0 -321 -3 -354 -16 -32 -13 -46 -13 -82 -4
-29 8 -119 11 -274 8 l-230 -3 0 40 0 40 270 -3 c167 -2 280 0 295 7 15 6 158
10 361 10 l337 1 4 -24z m-6891 -18 c5 -13 25 -77 43 -143 169 -611 240 -777
469 -1101 121 -172 225 -293 453 -528 229 -237 328 -322 527 -453 229 -150
368 -215 702 -328 94 -32 176 -62 183 -67 19 -16 14 3 -6 26 -10 12 -29 39
-43 61 l-23 40 64 -58 c174 -157 326 -222 705 -302 186 -40 378 -92 495 -135
88 -33 150 -61 150 -70 0 -3 -13 -14 -30 -23 -29 -17 -30 -17 -97 16 -84 43
-243 94 -434 142 -412 102 -479 123 -636 204 -56 27 -186 78 -301 115 -342
111 -460 164 -709 319 -218 135 -276 180 -426 330 -70 70 -130 127 -134 127
-3 0 2 -9 12 -20 20 -22 14 -26 -17 -9 -14 8 -18 8 -14 0 8 -13 -38 -26 -55
-15 -8 4 -9 3 -5 -4 4 -7 3 -12 -3 -12 -6 0 -8 -7 -5 -15 8 -20 -21 -30 -49
-18 -19 9 -22 7 -23 -16 -1 -14 1 -20 3 -13 3 6 12 12 20 12 14 0 14 -2 -1
-19 -17 -18 -13 -51 6 -51 6 0 7 -7 4 -16 -6 -15 -4 -15 11 -3 15 12 16 12 9
-5 -7 -19 -6 -19 13 -2 14 13 21 14 27 5 4 -8 3 -10 -4 -5 -8 5 -10 2 -6 -8 3
-9 11 -13 18 -9 6 4 19 9 28 10 13 2 16 -2 11 -15 -6 -15 -5 -15 10 -4 9 8 20
11 26 8 5 -4 40 -9 78 -12 37 -3 77 -7 88 -9 34 -5 105 -37 105 -46 0 -11 19
-12 -190 6 -475 39 -806 171 -1057 422 -51 51 -93 96 -93 102 0 40 349 75 525
52 150 -20 244 -53 350 -124 l60 -40 -30 34 c-16 19 -35 39 -40 44 -122 121
-393 496 -490 677 -57 107 -76 160 -175 472 -122 388 -148 496 -120 496 6 0
15 -10 21 -22z m7581 17 c8 -8 -34 -177 -82 -335 -23 -74 -53 -173 -66 -220
-74 -250 -143 -399 -287 -617 -156 -234 -258 -362 -442 -552 -251 -259 -379
-381 -472 -447 -346 -246 -579 -358 -1033 -494 -41 -13 -124 -49 -185 -81
-125 -65 -240 -103 -565 -184 -290 -72 -418 -115 -560 -188 -144 -74 -253
-145 -364 -236 -48 -39 -91 -71 -96 -71 -11 0 -40 41 -40 56 0 15 137 123 237
188 112 72 268 149 377 185 99 32 373 105 438 116 18 3 65 13 103 21 296 67
456 136 611 265 78 63 94 67 44 9 -16 -19 -29 -38 -30 -42 0 -7 336 105 453
151 182 72 423 212 610 353 106 79 552 528 663 667 47 58 134 179 194 268 154
229 222 369 294 606 19 62 50 164 69 227 20 63 47 162 62 219 33 130 46 157
67 136z m-6307 -134 c42 -20 90 -61 97 -83 4 -10 22 -4 72 20 l66 32 210 0
210 0 0 -39 0 -40 -198 4 -197 4 -70 -37 c-58 -32 -70 -43 -76 -69 -9 -45 -46
-99 -83 -122 -91 -56 -222 -16 -267 83 -71 156 84 318 236 247z m5194 -19 c52
-41 81 -97 81 -155 0 -152 -183 -236 -307 -141 -38 29 -63 72 -63 108 0 22
-11 30 -76 61 l-77 35 -203 0 -204 0 0 40 0 40 210 0 c201 0 213 -1 258 -24
81 -40 94 -40 126 0 63 79 181 96 255 36z m-4556 -172 c13 0 17 -9 17 -40 l0
-40 -129 0 -129 0 -146 -132 c-231 -209 -210 -196 -313 -197 -72 -1 -90 -4
-100 -18 -36 -52 -52 -55 -88 -18 -32 31 -32 59 0 90 23 24 30 25 139 25 l115
0 38 32 c21 18 94 85 163 148 69 64 134 122 144 130 18 14 202 31 251 23 11
-1 28 -3 38 -3z m3803 -5 c4 -8 10 -15 16 -15 5 0 6 5 3 10 -4 6 17 10 57 10
127 0 124 2 311 -171 l172 -159 116 0 c107 0 117 -2 136 -22 32 -37 35 -46 19
-76 -25 -48 -79 -51 -96 -7 -8 21 -16 23 -102 27 -114 4 -74 -24 -402 278
l-48 45 -139 3 -139 4 0 38 c0 42 8 48 58 49 20 1 35 -5 38 -14z m1207 -235
c41 -146 50 -228 44 -400 -7 -238 -50 -367 -176 -535 -50 -68 -150 -176 -127
-137 4 6 2 12 -3 12 -6 0 -11 -7 -11 -17 0 -15 -1 -15 -18 0 -10 10 -23 17
-28 17 -5 0 -2 -5 6 -10 8 -5 10 -10 4 -10 -17 0 -55 45 -47 55 5 5 0 3 -9 -4
-12 -9 -18 -10 -18 -2 0 6 -6 11 -14 11 -18 0 -24 59 -20 208 8 323 139 676
323 872 31 33 54 50 60 45 4 -6 20 -53 34 -105z m-6167 23 c181 -212 291 -551
293 -901 1 -66 -2 -91 -10 -86 -8 5 -8 1 0 -14 14 -26 14 -42 0 -22 -8 12 -10
12 -8 -5 3 -36 -1 -46 -13 -39 -6 4 -18 -2 -26 -12 -14 -19 -15 -18 -8 1 6 19
5 19 -8 1 -9 -10 -20 -15 -27 -10 -8 4 -10 3 -5 -4 4 -7 1 -12 -8 -12 -9 0
-16 6 -17 13 0 9 -2 9 -6 -1 -7 -18 -45 8 -103 71 -96 105 -168 246 -207 408
-25 103 -25 382 0 489 28 120 57 200 73 200 7 0 43 -35 80 -77z m1127 -356
l147 -149 1 -207 c0 -113 0 -248 -1 -298 -1 -86 1 -94 24 -118 l25 -25 81 30
c45 17 83 30 86 30 2 0 4 21 4 46 0 184 256 239 340 73 22 -42 26 -112 9 -156
-24 -64 -97 -113 -170 -113 l-38 0 -3 -152 -3 -153 -30 3 c-16 2 -33 9 -37 15
-5 7 -8 83 -7 171 1 142 -1 161 -18 177 -18 18 -20 18 -98 -10 -130 -46 -146
-46 -194 -2 l-41 38 0 140 0 139 -152 150 c-83 82 -164 161 -180 176 l-29 27
-46 -24 c-57 -31 -96 -31 -147 -2 -102 57 -106 196 -9 262 96 65 219 3 231
-116 4 -48 7 -51 166 -205 l161 -156 3 113 3 114 -233 228 -233 228 29 25 28
25 92 -87 c50 -49 157 -155 239 -237z m4154 301 l23 -22 -230 -227 -230 -227
0 -118 0 -118 162 159 163 160 5 53 c5 46 11 59 41 87 65 59 161 55 217 -9 81
-93 29 -233 -92 -249 -46 -7 -68 0 -118 36 -16 10 -34 -4 -145 -113 -71 -69
-151 -147 -180 -175 l-52 -50 -1 -136 0 -136 -38 -43 c-45 -51 -73 -54 -183
-16 -90 31 -101 32 -122 8 -14 -15 -17 -48 -19 -188 l-3 -169 -32 -3 -33 -3
-1 78 c-1 43 -1 113 0 156 l2 77 -30 0 c-42 0 -41 0 -81 16 -47 20 -70 42 -91
89 -48 103 2 221 108 256 109 36 233 -55 233 -171 0 -22 2 -40 3 -40 2 0 39
-13 83 -29 111 -40 124 -33 125 68 0 42 2 108 4 146 2 39 3 147 4 240 l1 170
234 233 c129 127 238 232 242 232 4 0 18 -10 31 -22z m-6027 -72 c0 -2 -7 -6
-15 -10 -8 -3 -15 -1 -15 4 0 6 7 10 15 10 8 0 15 -2 15 -4z m7600 -16 c0 -5
-2 -10 -4 -10 -3 0 -8 5 -11 10 -3 6 -1 10 4 10 6 0 11 -4 11 -10z m-7757
-204 c105 -19 202 -52 306 -103 56 -28 95 -58 151 -114 81 -83 153 -190 132
-197 -7 -2 -9 -9 -6 -14 4 -7 2 -8 -5 -4 -6 4 -9 12 -6 17 4 5 3 9 -2 10 -4 0
-16 2 -25 4 -11 2 -18 -3 -18 -11 0 -9 -5 -12 -12 -8 -8 5 -9 2 -5 -9 7 -19
-8 -33 -18 -16 -4 6 -2 16 4 22 18 18 13 26 -16 23 -14 -2 -31 -10 -38 -19 -7
-9 -16 -13 -20 -9 -5 4 -5 -1 -1 -12 3 -10 2 -24 -4 -31 -10 -13 2 -65 16 -65
3 0 4 7 1 14 -4 10 -1 13 8 10 16 -6 16 -24 0 -37 -6 -5 -3 -7 6 -4 9 3 22 0
28 -6 6 -6 11 -7 11 -1 0 5 4 4 8 -2 4 -5 39 -23 77 -40 92 -38 61 -43 -81
-11 -104 24 -256 75 -354 120 -141 65 -303 188 -412 313 -55 64 -138 176 -138
188 0 20 291 14 413 -8z m8245 9 c22 -22 -160 -243 -278 -338 -47 -37 -120
-88 -163 -113 -143 -83 -381 -165 -556 -193 -65 -10 -56 -1 34 38 39 17 69 35
67 41 -1 7 4 7 19 -1 19 -9 21 -9 16 4 -4 11 1 14 20 12 20 -2 24 1 20 16 -4
16 -2 17 14 8 15 -7 19 -7 17 3 -2 7 3 12 10 10 8 -1 11 2 7 8 -5 8 -11 7 -21
-1 -8 -6 -14 -9 -14 -6 0 3 -3 13 -7 23 -4 12 -3 15 5 10 7 -4 12 -2 12 3 0 6
-7 11 -16 11 -9 0 -18 9 -21 20 -7 28 -22 25 -17 -2 4 -20 2 -19 -9 4 -10 21
-16 24 -30 17 -13 -8 -17 -6 -17 6 0 8 -5 15 -10 15 -7 0 -7 -7 0 -20 6 -11
15 -18 19 -15 5 3 11 -1 14 -9 8 -20 -27 -14 -35 7 -8 20 -28 23 -29 5 0 -7
-5 -2 -10 12 -8 18 -12 21 -18 11 -5 -7 -14 -12 -20 -10 -19 7 62 122 141 202
127 127 303 199 568 231 48 6 281 -1 288 -9z m-6775 -421 c98 -51 263 -197
350 -312 116 -152 181 -297 231 -510 13 -58 13 -62 -2 -60 -10 2 -16 -3 -14
-10 2 -10 -2 -10 -17 -2 -13 7 -22 7 -26 0 -3 -5 -11 -10 -16 -10 -6 0 -8 4
-5 9 3 5 0 14 -8 20 -11 9 -12 6 -9 -13 6 -27 -13 -44 -30 -27 -14 14 -37 14
-37 1 0 -5 6 -9 13 -7 6 1 11 -4 9 -12 -1 -7 2 -19 9 -27 6 -7 8 -18 4 -24 -3
-5 -1 -10 5 -10 6 0 8 -5 4 -12 -5 -8 -1 -9 12 -4 15 6 17 5 7 -5 -10 -10 -8
-19 14 -41 15 -15 24 -28 21 -28 -40 0 -212 122 -277 197 -119 134 -209 323
-251 525 -21 101 -40 378 -26 378 4 0 21 -7 39 -16z m4943 -126 c-12 -238 -44
-375 -126 -538 -93 -185 -236 -336 -382 -406 -47 -22 -60 -12 -24 17 22 17 27
28 22 49 -4 24 -2 27 15 23 14 -4 20 -1 18 8 -1 8 1 22 6 32 5 11 3 23 -5 30
-9 9 -11 9 -6 0 8 -14 -3 -43 -16 -43 -5 0 -6 10 -2 23 6 21 6 21 -15 -3 l-21
-25 9 26 c8 23 7 28 -12 33 -11 3 -27 0 -35 -6 -7 -6 -12 -7 -11 -2 1 5 1 15
0 22 -1 11 -3 11 -14 0 -8 -7 -16 -20 -20 -28 -8 -22 -1 55 13 129 42 231 223
528 413 680 68 53 174 121 190 121 6 0 7 -55 3 -142z m-5940 107 c1 -8 -4 -15
-12 -15 -8 0 -14 -5 -14 -12 0 -6 -2 -9 -5 -6 -3 2 1 16 8 31 12 26 19 27 23
2z m-21 -55 c3 -6 -1 -7 -9 -4 -18 7 -21 14 -7 14 6 0 13 -4 16 -10z m2645
-358 l0 -367 -100 -103 c-100 -101 -101 -102 -125 -86 -14 9 -25 22 -25 29 0
7 39 50 86 97 l86 84 2 174 c2 96 4 257 4 358 l2 182 35 0 35 0 0 -368z m191
108 c0 -143 0 -291 0 -330 0 -38 0 -113 0 -167 l-1 -96 -117 -119 c-65 -65
-122 -117 -128 -115 -5 2 -16 15 -24 28 -13 24 -10 28 93 129 l106 104 0 413
0 413 35 0 35 0 1 -260z m179 -220 l0 -480 -136 -140 c-75 -77 -143 -140 -150
-140 -7 0 -20 10 -29 23 -14 23 -11 27 115 154 l130 131 0 466 0 466 35 0 35
0 0 -480z m180 -285 c0 -747 0 -765 -19 -765 -54 0 -51 -52 -51 771 l0 759 35
0 35 0 0 -765z m190 -15 l0 -780 -35 0 -35 0 0 780 0 780 35 0 35 0 0 -780z
m250 6 l0 -774 -22 -6 c-13 -3 -29 -6 -35 -6 -10 0 -13 163 -13 780 l0 780 35
0 35 0 0 -774z m190 15 l0 -758 -32 -7 c-20 -4 -34 -2 -39 6 -8 13 -10 1498
-2 1511 2 4 20 7 39 7 l34 0 0 -759z m180 293 l0 -466 125 -127 c69 -70 125
-132 125 -137 0 -6 -9 -20 -21 -33 -26 -27 -15 -35 -180 140 l-127 136 3 474
c3 261 5 475 5 477 0 1 16 2 35 2 l35 0 0 -466z m180 55 l0 -412 106 -107 105
-107 -24 -29 -24 -28 -114 118 c-63 65 -116 123 -119 130 -3 6 -4 199 -2 429
l3 417 35 0 34 0 0 -411z m190 53 l5 -352 89 -90 89 -90 -23 -25 c-25 -27 -46
-32 -52 -14 -2 6 -43 50 -92 98 l-88 87 0 365 c0 200 0 368 1 372 1 5 16 7 34
5 l32 -3 5 -353z m2875 153 c44 -9 86 -20 93 -24 30 -17 -148 -196 -278 -281
-219 -141 -530 -234 -850 -255 -52 -3 -119 -8 -147 -11 -59 -6 -72 9 -25 28
34 14 34 14 111 22 36 4 68 9 73 12 4 3 8 -1 9 -8 0 -9 2 -9 5 -2 3 7 14 10
24 7 12 -3 20 0 20 7 0 9 4 9 17 -1 14 -12 16 -12 8 0 -6 11 -3 13 13 9 12 -4
22 -3 22 2 0 4 18 6 39 4 33 -2 39 0 34 13 -4 11 -2 14 5 9 7 -4 12 -2 12 3 0
6 4 11 10 11 5 0 7 -6 4 -14 -3 -8 -2 -16 3 -19 4 -3 8 8 8 24 1 15 -1 26 -3
24 -9 -9 -32 24 -26 38 3 9 -3 16 -15 20 -13 3 -21 13 -21 26 0 14 -6 21 -18
21 -10 0 -29 10 -41 21 l-23 22 7 -23 c6 -19 4 -22 -10 -17 -9 4 -22 7 -28 7
-7 0 -6 4 3 10 8 5 11 10 6 10 -11 0 57 85 98 124 122 113 226 160 446 200 57
10 338 -3 415 -19z m-6648 -346 c-9 -6 -14 -16 -11 -22 4 -7 3 -8 -1 -4 -18
16 -13 37 8 37 20 -1 20 -2 4 -11z m-74 -83 c4 -10 1 -13 -9 -9 -7 3 -14 9
-14 14 0 14 17 10 23 -5z m1513 -174 c197 -67 365 -182 493 -337 68 -83 131
-188 131 -219 0 -11 -5 -12 -24 -3 -20 10 -22 15 -13 26 10 12 9 13 -8 7 -11
-5 -31 -11 -44 -14 -19 -4 -22 -2 -15 9 13 20 12 56 -2 56 -6 0 -9 -9 -6 -20
4 -16 1 -18 -19 -11 -13 4 -32 7 -41 6 -11 0 -15 5 -13 20 3 15 1 17 -9 9 -9
-7 -16 -7 -25 2 -10 9 -11 8 -6 -8 6 -19 6 -19 -8 -3 -11 14 -16 15 -26 5 -10
-9 -11 -8 -6 6 4 9 13 17 21 17 8 0 14 5 14 10 0 7 -6 7 -20 0 -11 -6 -20 -7
-20 -3 0 4 -7 -1 -15 -11 -8 -11 -15 -14 -15 -8 0 15 -36 16 -45 2 -3 -5 1
-10 9 -10 9 0 16 -5 16 -10 0 -6 -11 -8 -27 -4 -27 6 -27 6 -8 -9 11 -8 17
-19 12 -23 -4 -4 -7 -2 -7 4 0 7 -7 12 -15 12 -8 0 -15 5 -15 10 0 6 -5 10
-11 10 -5 0 -7 -4 -4 -10 3 -5 1 -10 -4 -10 -6 0 -11 6 -11 13 0 9 -2 9 -8 0
-12 -19 -115 53 -213 149 -65 64 -95 102 -127 165 -40 77 -92 203 -92 222 0
15 113 -9 226 -47z m3084 38 c0 -44 -99 -247 -159 -327 -22 -28 -36 -55 -33
-59 4 -4 2 -4 -4 -1 -6 3 -33 -12 -60 -35 -67 -55 -134 -101 -134 -91 0 4 -6
1 -13 -8 -15 -19 -52 -34 -40 -16 11 18 13 38 2 31 -5 -3 -7 -9 -4 -14 8 -13
-22 -19 -34 -7 -10 9 -16 7 -27 -7 -8 -11 -14 -15 -14 -10 0 6 4 14 9 20 6 5
4 21 -5 39 -8 18 -12 21 -8 8 3 -13 0 -31 -6 -40 -10 -15 -11 -15 -6 -1 8 27
-7 30 -27 6 -15 -19 -18 -19 -13 -4 8 24 -2 56 -17 56 -8 0 -8 -3 1 -12 7 -7
12 -18 12 -25 0 -21 -26 -15 -38 10 -7 14 -11 17 -11 7 -1 -9 3 -20 9 -26 6
-6 5 -15 -1 -24 -8 -12 -12 -12 -16 -2 -4 10 -8 10 -19 1 -11 -9 -14 -8 -14 2
0 11 -3 11 -11 -1 -8 -11 -12 -12 -16 -2 -7 17 -26 15 -20 -3 4 -8 2 -17 -3
-20 -6 -4 -10 -1 -10 4 0 6 -5 11 -12 11 -6 0 -8 -3 -5 -7 4 -3 2 -12 -4 -20
-10 -11 -14 -10 -25 4 -13 17 -14 17 -7 -2 3 -11 2 -17 -2 -12 -5 4 -15 -5
-22 -20 -7 -16 -11 -20 -8 -10 2 9 0 17 -5 17 -6 0 -10 -5 -10 -11 0 -5 -4 -7
-10 -4 -6 4 4 34 24 73 101 200 302 377 530 468 144 57 286 89 286 64z m-4339
-39 c176 -17 313 -66 399 -143 l35 -31 -30 7 -30 8 25 -22 25 -22 -30 6 c-17
3 -24 3 -17 0 6 -3 12 -10 12 -15 0 -14 -22 -11 -41 7 -16 15 -17 14 -12 -5 3
-11 8 -20 12 -19 23 3 22 -5 -4 -27 -16 -13 -24 -24 -17 -25 6 0 12 6 13 13 1
6 4 1 8 -13 4 -14 3 -31 -2 -38 -12 -15 -6 -23 22 -25 28 -2 27 -13 -1 -21
-161 -46 -193 -51 -323 -51 -163 0 -270 16 -409 61 -146 47 -297 136 -391 230
l-38 38 29 8 c67 20 318 68 391 76 115 12 265 14 374 3z m5749 -5 c14 -2 50
-6 80 -10 78 -11 309 -66 315 -76 15 -25 -118 -131 -245 -195 -257 -128 -539
-165 -815 -105 -72 15 -81 23 -67 54 7 16 8 28 2 31 -6 4 -10 14 -9 23 0 14 2
14 6 2 4 -8 13 -21 21 -29 13 -13 14 -12 7 9 -4 14 -12 31 -17 37 -6 7 -8 22
-5 32 6 23 -19 37 -38 21 -9 -7 -16 -5 -26 7 -12 16 -12 17 2 5 14 -11 17 -9
17 12 0 25 -16 30 -30 11 -5 -6 -8 -6 -8 2 0 14 49 56 103 87 63 36 199 76
296 86 76 8 344 5 411 -4z m-746 -339 c-7 -19 -20 -22 -29 -7 -3 6 1 10 10 10
12 0 15 5 10 18 -4 12 -3 14 5 6 6 -6 8 -18 4 -27z m-4003 -112 c52 -21 108
-48 123 -61 l27 -24 -43 -52 c-48 -57 -176 -156 -250 -194 -78 -39 -215 -81
-327 -100 -123 -20 -330 -15 -450 10 -117 26 -117 23 -28 110 127 125 327 246
506 306 185 62 295 64 442 5z m3679 31 c150 -27 293 -88 445 -190 87 -58 187
-141 229 -191 l36 -44 -37 -10 c-269 -72 -599 -44 -826 70 -106 54 -176 107
-271 207 -39 41 -39 42 -20 58 32 26 156 83 214 98 69 18 135 19 230 2z
m-2982 -307 c6 -1 12 -7 12 -12 0 -5 7 -4 15 3 11 9 15 9 15 1 0 -7 4 -10 10
-6 5 3 18 -3 30 -15 11 -11 24 -20 29 -20 21 0 -36 -107 -87 -162 -106 -114
-269 -203 -458 -249 -122 -31 -387 -33 -514 -5 -126 27 -125 25 -50 96 135
125 323 244 485 305 146 54 261 75 390 70 61 -2 116 -5 123 -6z m2362 -23
c184 -47 413 -174 585 -327 93 -82 95 -86 44 -99 -249 -67 -551 -45 -776 56
-142 64 -284 180 -327 266 -28 56 -33 84 -14 72 8 -5 9 -2 5 9 -4 11 -1 17 8
17 8 0 15 5 15 11 0 5 5 7 10 4 6 -3 10 -2 10 4 0 5 11 8 25 6 14 -1 28 2 31
7 3 4 67 7 142 4 104 -3 162 -11 242 -30z m-1172 -297 c140 -99 182 -132 182
-145 0 -6 -8 -22 -18 -34 l-18 -23 -95 70 c-52 38 -116 84 -144 103 -27 18
-52 35 -55 38 -4 3 50 52 58 52 2 0 42 -28 90 -61z m-812 22 c110 -50 149
-180 85 -284 -52 -84 -171 -109 -263 -55 -129 76 -113 274 27 339 51 24 99 24
151 0z m1374 -2 c49 -21 88 -64 109 -122 32 -83 -16 -189 -104 -228 -97 -44
-212 -1 -256 96 -57 124 36 269 174 274 16 1 50 -8 77 -20z m-800 -251 l0
-133 35 -1 35 -1 0 134 0 133 35 0 35 0 0 -147 c1 -109 4 -155 15 -173 8 -14
14 -45 15 -70 0 -106 -98 -167 -194 -121 -68 34 -97 118 -61 181 11 19 14 64
15 178 l0 152 35 0 35 0 0 -132z"/>
<path d="M5100 8255 c-26 -31 13 -82 44 -56 21 17 21 57 0 65 -23 9 -30 8 -44
-9z"/>
<path d="M4617 8223 c-4 -3 -7 -17 -7 -30 0 -19 5 -23 30 -23 27 0 30 3 30 30
0 25 -4 30 -23 30 -13 0 -27 -3 -30 -7z"/>
<path d="M5570 8211 c-8 -16 -6 -23 11 -34 23 -17 59 -11 59 8 0 45 -50 63
-70 26z"/>
<path d="M4314 8155 c-10 -25 4 -35 31 -23 19 9 22 14 14 25 -15 17 -38 17
-45 -2z"/>
<path d="M5890 8146 c0 -18 35 -27 49 -13 18 18 12 27 -19 27 -19 0 -30 -5
-30 -14z"/>
<path d="M7886 8133 c-6 -14 -5 -15 5 -6 7 7 10 15 7 18 -3 3 -9 -2 -12 -12z"/>
<path d="M7931 8094 c0 -11 3 -14 6 -6 3 7 2 16 -1 19 -3 4 -6 -2 -5 -13z"/>
<path d="M1785 7510 c3 -5 2 -10 -4 -10 -6 0 -7 -8 -4 -17 6 -15 7 -15 14 3
11 27 10 34 -2 34 -5 0 -7 -4 -4 -10z"/>
<path d="M1745 7380 c3 -5 8 -10 11 -10 2 0 4 5 4 10 0 6 -5 10 -11 10 -5 0
-7 -4 -4 -10z"/>
<path d="M8472 7480 c14 -22 24 -19 15 5 -4 8 -11 15 -17 15 -6 0 -6 -7 2 -20z"/>
<path d="M3736 8188 c-34 -48 -4 -118 50 -118 32 0 74 42 74 75 0 59 -91 90
-124 43z"/>
<path d="M6444 8207 c-71 -37 -51 -130 28 -130 37 0 68 32 68 73 0 44 -56 78
-96 57z"/>
<path d="M3193 8016 c-34 -31 -37 -38 -37 -91 -1 -51 2 -59 31 -85 87 -78 213
-21 213 95 0 70 -51 115 -130 115 -32 0 -48 -7 -77 -34z m127 -56 c24 -24 25
-38 4 -68 -28 -41 -104 -18 -104 31 0 51 63 74 100 37z"/>
<path d="M6903 8030 c-41 -24 -59 -82 -43 -138 12 -47 37 -71 85 -82 110 -25
191 81 139 181 -28 56 -121 76 -181 39z m111 -66 c51 -50 -23 -125 -76 -77
-36 33 -13 93 37 93 13 0 31 -7 39 -16z"/>
<path d="M3179 7421 c-27 -28 -31 -37 -26 -69 12 -70 72 -92 126 -46 55 46 34
127 -36 140 -27 5 -37 1 -64 -25z"/>
<path d="M6969 7421 c-31 -31 -36 -59 -17 -94 42 -80 148 -50 148 42 0 31 -6
44 -26 60 -37 29 -70 26 -105 -8z"/>
<path d="M1740 6701 c0 -6 4 -13 10 -16 6 -3 7 1 4 9 -7 18 -14 21 -14 7z"/>
<path d="M2792 6640 c-47 -44 -36 -111 21 -138 33 -16 69 -2 100 40 17 22 18
31 8 58 -6 18 -19 39 -28 46 -27 20 -76 17 -101 -6z"/>
<path d="M4014 6530 c-81 -19 -146 -89 -171 -182 -16 -65 -18 -568 -2 -683 5
-41 21 -105 35 -140 28 -76 110 -243 148 -303 14 -23 26 -43 26 -46 0 -5 160
-269 253 -416 350 -559 395 -648 385 -767 -3 -36 -5 -38 -48 -46 -51 -9 -371
0 -383 12 -4 4 -11 110 -15 236 l-7 229 -32 8 c-18 5 -108 7 -200 6 l-168 -3
0 -365 c0 -386 3 -414 48 -481 29 -43 93 -88 143 -99 55 -13 850 -13 896 0 49
14 125 91 157 160 l26 55 0 370 c0 359 -1 372 -23 444 -43 136 -77 199 -287
536 -98 158 -203 331 -310 515 -58 98 -157 303 -181 374 -13 38 -24 89 -24
113 l0 43 218 -2 217 -3 12 -170 c14 -191 26 -250 57 -267 13 -8 76 -12 169
-13 120 0 150 3 158 15 6 10 9 124 6 325 -5 340 -10 375 -67 453 -16 23 -53
55 -82 72 l-53 30 -435 -1 c-239 -1 -449 -4 -466 -9z"/>
<path d="M5397 6533 c-10 -9 -8 -375 1 -390 5 -8 47 -13 127 -15 l120 -3 0
-1130 0 -1130 -125 -5 -125 -5 0 -190 0 -190 495 4 c272 2 498 5 503 8 4 2 7
87 7 188 l0 184 -117 3 -118 3 -3 1133 -2 1132 47 1 c27 0 68 2 93 4 25 2 57
4 73 4 l27 1 -2 198 -3 197 -496 3 c-272 1 -499 -1 -502 -5z"/>
<path d="M7362 6637 c-22 -23 -29 -68 -16 -102 10 -24 60 -46 89 -39 29 7 65
48 65 75 0 74 -90 117 -138 66z"/>
<path d="M1200 5522 c6 -13 14 -21 18 -18 3 4 -2 14 -12 24 -18 16 -18 16 -6
-6z"/>
<path d="M8796 5805 c4 -9 0 -15 -7 -15 -11 0 -11 -2 1 -10 9 -6 17 -5 21 2 8
13 1 38 -12 38 -4 0 -6 -7 -3 -15z"/>
<path d="M8690 5736 c0 -2 9 -6 20 -9 11 -3 20 -1 20 4 0 5 -9 9 -20 9 -11 0
-20 -2 -20 -4z"/>
<path d="M2488 5923 c-26 -30 -30 -60 -13 -92 28 -55 76 -66 119 -26 33 30 36
85 6 115 -26 26 -91 27 -112 3z"/>
<path d="M7670 5921 c-18 -18 -30 -40 -30 -56 0 -32 50 -85 80 -85 30 0 80 53
80 84 0 32 -37 72 -73 80 -22 5 -34 1 -57 -23z"/>
<path d="M8826 4762 c-2 -4 4 -8 14 -8 10 0 16 4 14 8 -3 4 -9 8 -14 8 -5 0
-11 -4 -14 -8z"/>
<path d="M1160 4510 c0 -5 5 -10 11 -10 5 0 7 5 4 10 -3 6 -8 10 -11 10 -2 0
-4 -4 -4 -10z"/>
<path d="M1115 4440 c3 -5 1 -10 -4 -10 -6 0 -11 -4 -11 -10 0 -5 7 -6 17 -3
12 5 14 3 8 -7 -5 -9 -4 -11 3 -6 9 5 9 13 2 27 -6 10 -13 19 -16 19 -3 0 -2
-4 1 -10z"/>
<path d="M1400 3676 c0 -2 8 -10 18 -17 15 -13 16 -12 3 4 -13 16 -21 21 -21
13z"/>
<path d="M1320 3640 c-9 -6 -10 -10 -3 -10 6 0 15 5 18 10 8 12 4 12 -15 0z"/>
<path d="M1280 3574 c0 -8 5 -12 10 -9 6 4 8 11 5 16 -9 14 -15 11 -15 -7z"/>
<path d="M8925 3650 c3 -5 3 -10 -2 -10 -4 0 -9 -11 -9 -25 -2 -20 1 -23 11
-15 8 6 11 18 8 26 -3 9 1 14 13 14 16 0 17 2 4 10 -20 13 -33 13 -25 0z"/>
<path d="M2190 2546 c0 -2 8 -10 18 -17 15 -13 16 -12 3 4 -13 16 -21 21 -21
13z"/>
<path d="M2187 2339 c7 -7 15 -10 18 -7 3 3 -2 9 -12 12 -14 6 -15 5 -6 -5z"/>
<path d="M2137 2229 c7 -7 15 -10 18 -7 3 3 -2 9 -12 12 -14 6 -15 5 -6 -5z"/>
<path d="M2510 4012 c-38 -38 -38 -66 -1 -103 36 -35 64 -37 96 -4 45 44 24
116 -37 131 -22 5 -33 0 -58 -24z"/>
<path d="M7683 4030 c-49 -20 -59 -96 -17 -129 36 -28 70 -26 99 5 58 63 -4
156 -82 124z"/>
<path d="M3171 3914 c0 -11 3 -14 6 -6 3 7 2 16 -1 19 -3 4 -6 -2 -5 -13z"/>
<path d="M7925 2690 c3 -5 8 -10 11 -10 2 0 4 5 4 10 0 6 -5 10 -11 10 -5 0
-7 -4 -4 -10z"/>
<path d="M2347 2693 c-13 -12 -7 -22 12 -20 15 1 17 4 9 14 -12 15 -13 15 -21
6z"/>
<path d="M2786 3359 c-36 -28 -36 -80 0 -108 15 -12 34 -21 44 -21 33 0 70 39
70 73 0 38 -7 50 -37 66 -31 16 -47 14 -77 -10z"/>
<path d="M3744 2728 c-36 -17 -49 -52 -34 -88 23 -55 75 -66 115 -25 34 33 33
77 -1 104 -29 23 -48 25 -80 9z"/>
<path d="M7375 3355 c-14 -13 -25 -35 -25 -49 0 -27 51 -76 79 -76 26 0 71 49
71 77 0 32 -42 73 -75 73 -14 0 -37 -11 -50 -25z"/>
<path d="M6435 2715 c-30 -30 -32 -64 -4 -99 41 -52 129 -19 129 49 0 31 -44
75 -75 75 -14 0 -37 -11 -50 -25z"/>
<path d="M1564 2908 c0 -23 2 -36 4 -30 2 7 9 12 16 12 18 0 35 21 29 36 -3 8
-9 14 -14 14 -4 0 -6 -7 -3 -15 4 -8 1 -15 -5 -15 -6 0 -11 9 -11 20 0 11 -3
20 -7 20 -5 0 -8 -19 -9 -42z"/>
<path d="M1537 2929 c7 -7 15 -10 18 -7 3 3 -2 9 -12 12 -14 6 -15 5 -6 -5z"/>
<path d="M1589 2853 c-13 -16 -12 -17 4 -4 16 13 21 21 13 21 -2 0 -10 -8 -17
-17z"/>
<path d="M8691 2933 c-1 -6 -4 -20 -7 -30 -5 -17 -5 -17 6 0 6 10 9 23 6 30
-3 9 -5 9 -5 0z"/>
<path d="M7077 2119 c7 -7 15 -10 18 -7 3 3 -2 9 -12 12 -14 6 -15 5 -6 -5z"/>
<path d="M7130 1959 c0 -5 5 -7 10 -4 6 3 10 8 10 11 0 2 -4 4 -10 4 -5 0 -10
-5 -10 -11z"/>
<path d="M8080 2353 c1 -15 27 -43 33 -36 4 3 7 1 7 -7 0 -9 3 -10 13 -1 8 6
18 7 23 3 5 -4 0 3 -10 16 -11 12 -21 22 -24 22 -2 0 1 -7 8 -15 19 -23 -6
-19 -30 5 -11 11 -20 17 -20 13z"/>
<path d="M8095 2291 c-3 -5 -1 -12 5 -16 5 -3 10 1 10 9 0 18 -6 21 -15 7z"/>
<path d="M3970 1659 c0 -5 5 -7 10 -4 6 3 10 8 10 11 0 2 -4 4 -10 4 -5 0 -10
-5 -10 -11z"/>
<path d="M3894 1639 c3 -18 36 -20 36 -2 0 12 -3 13 -14 4 -10 -8 -16 -9 -19
-1 -3 6 -5 6 -3 -1z"/>
<path d="M3940 1639 c0 -5 5 -7 10 -4 6 3 10 8 10 11 0 2 -4 4 -10 4 -5 0 -10
-5 -10 -11z"/>
<path d="M4165 1620 c-3 -5 -1 -10 4 -10 6 0 11 5 11 10 0 6 -2 10 -4 10 -3 0
-8 -4 -11 -10z"/>
<path d="M4246 1593 c-6 -14 -5 -15 5 -6 7 7 10 15 7 18 -3 3 -9 -2 -12 -12z"/>
<path d="M6302 1674 c-11 -12 -10 -14 3 -14 23 0 18 -17 -7 -25 -21 -6 -21 -8
-4 -12 27 -7 40 11 30 40 -8 21 -11 23 -22 11z"/>
<path d="M2725 1790 c-3 -5 -1 -10 4 -10 6 0 11 5 11 10 0 6 -2 10 -4 10 -3 0
-8 -4 -11 -10z"/>
<path d="M2756 1775 c4 -8 7 -15 9 -15 1 0 8 7 15 15 10 13 9 15 -8 15 -15 0
-20 -5 -16 -15z"/>
<path d="M7490 1820 c0 -11 2 -20 4 -20 2 0 6 9 9 20 3 11 1 20 -4 20 -5 0 -9
-9 -9 -20z"/>
<path d="M7520 1816 c0 -8 4 -17 9 -20 5 -4 7 3 4 14 -6 23 -13 26 -13 6z"/>
<path d="M7506 1781 c-3 -5 2 -15 12 -22 15 -12 16 -12 5 2 -7 9 -10 19 -6 22
3 4 4 7 0 7 -3 0 -8 -4 -11 -9z"/>
<path d="M4381 934 c-27 -35 -26 -66 2 -100 45 -51 137 -20 137 46 0 74 -95
110 -139 54z"/>
<path d="M5790 963 c-32 -12 -50 -37 -50 -70 0 -45 13 -68 48 -82 79 -33 148
76 84 132 -20 17 -61 27 -82 20z"/>
<path d="M5103 600 c-43 -18 -42 -95 2 -106 36 -9 62 4 74 37 9 27 7 33 -14
55 -26 26 -30 27 -62 14z"/>
</g>
</svg>
