<?xml version="1.0" standalone="no"?>
<!DOCTYPE svg PUBLIC "-//W3C//DTD SVG 20010904//EN"
 "http://www.w3.org/TR/2001/REC-SVG-20010904/DTD/svg10.dtd">
<svg version="1.0" xmlns="http://www.w3.org/2000/svg"
 width="1024.000000pt" height="1024.000000pt" viewBox="0 0 1024.000000 1024.000000"
 preserveAspectRatio="xMidYMid meet">

<g transform="translate(0.000000,1024.000000) scale(0.100000,-0.100000)"
fill="#ffffff" stroke="none">
<path d="M5036 9771 c-3 -5 8 -41 24 -81 17 -40 28 -75 26 -78 -3 -2 -20 5
-39 17 -19 11 -51 21 -71 21 l-36 0 0 -79 c0 -63 3 -80 16 -85 27 -11 54 -7
94 14 47 24 50 15 12 -46 -45 -72 -25 -118 56 -129 36 -4 47 -1 67 20 32 31
31 56 -1 111 -15 25 -24 48 -20 51 3 3 23 -2 44 -11 22 -10 52 -16 68 -14 l29
3 3 83 3 82 -38 0 c-21 0 -53 -9 -72 -21 -18 -11 -35 -18 -37 -16 -3 2 9 37
25 78 l30 74 -52 7 c-78 9 -125 9 -131 -1z"/>
<path d="M4860 9456 c0 -17 107 -106 127 -106 22 0 4 23 -59 74 -61 50 -68 53
-68 32z"/>
<path d="M5308 9414 c-55 -43 -70 -64 -48 -64 16 0 104 67 118 89 21 36 -7 25
-70 -25z"/>
<path d="M4507 9403 c-4 -3 -4 -23 -1 -43 6 -36 5 -38 -25 -45 -34 -7 -51 -1
-51 19 0 7 -9 21 -19 30 -18 16 -21 16 -51 1 -40 -21 -46 -39 -25 -71 18 -28
18 -29 -28 -55 -14 -8 -23 -4 -43 21 -31 37 -43 37 -78 5 -27 -25 -27 -25 -9
-55 9 -17 21 -30 25 -30 14 0 9 -16 -13 -38 l-20 -23 -30 26 c-37 31 -53 31
-73 3 -26 -37 -20 -65 19 -85 32 -17 34 -20 21 -43 -7 -14 -19 -23 -27 -22
-66 17 -78 15 -89 -12 -5 -15 -10 -38 -10 -51 0 -19 7 -24 45 -29 25 -4 45 -9
45 -11 0 -2 -4 -15 -10 -29 -8 -22 -16 -26 -49 -26 -48 0 -55 -9 -46 -60 l7
-40 50 0 c45 0 49 -2 46 -22 -2 -14 -14 -25 -38 -33 -46 -15 -53 -53 -16 -90
21 -21 30 -24 45 -15 35 18 42 12 35 -30 -11 -70 31 -94 67 -37 23 37 21 82
-7 211 -15 66 -16 90 -7 143 16 92 57 167 128 238 78 77 165 121 275 141 74
13 95 13 170 0 47 -9 104 -22 128 -30 l42 -15 0 63 c0 71 -6 83 -31 60 -9 -8
-28 -14 -41 -12 -20 3 -23 9 -23 43 0 38 -2 40 -37 46 -46 7 -55 2 -60 -36 -3
-28 -6 -30 -43 -30 -39 0 -40 1 -43 38 l-3 37 -48 0 c-26 0 -51 -3 -54 -7z"/>
<path d="M5485 9401 c-28 -6 -30 -10 -28 -49 2 -38 0 -42 -23 -42 -13 0 -33 6
-44 13 -28 16 -40 -3 -40 -65 0 -54 2 -55 75 -33 206 63 412 18 551 -121 119
-118 160 -264 118 -414 -26 -92 -24 -147 5 -189 l24 -34 25 28 c19 22 23 36
19 63 -5 29 -4 33 11 27 48 -18 82 8 82 65 0 12 -12 22 -35 30 -27 9 -35 17
-35 36 0 22 4 24 44 24 44 0 44 0 51 40 9 51 2 60 -44 60 -32 0 -40 4 -45 23
-9 34 -8 36 30 43 42 8 48 20 36 65 -7 29 -13 34 -38 33 -16 0 -37 -4 -46 -8
-13 -6 -21 -1 -30 18 -11 25 -9 29 23 55 l34 29 -19 36 c-22 42 -36 44 -78 15
l-30 -22 -21 21 -21 22 29 30 29 30 -29 30 c-32 34 -59 38 -74 13 -26 -46 -27
-46 -60 -29 -36 19 -36 18 -16 57 18 34 15 44 -27 65 -37 19 -56 13 -69 -26
-11 -31 -18 -34 -56 -24 -17 5 -23 15 -25 48 l-3 41 -47 3 -48 3 0 -40 c0 -41
0 -41 -38 -41 -36 0 -39 2 -48 37 -10 40 -20 45 -69 34z"/>
<path d="M5037 9263 c-4 -3 -7 -33 -7 -65 l0 -58 94 0 94 0 7 52 c6 43 5 54
-11 65 -19 14 -165 19 -177 6z"/>
<path d="M4510 9154 c-109 -29 -207 -117 -231 -208 -16 -60 -7 -160 16 -186
11 -12 52 -46 92 -76 71 -54 87 -74 59 -74 -8 0 -24 -9 -37 -19 l-24 -19 33
-67 c17 -36 39 -68 48 -72 9 -3 26 5 43 21 15 14 32 26 39 26 16 0 15 -55 -3
-114 -21 -69 -19 -72 19 -42 41 31 46 32 46 8 0 -35 -43 -64 -115 -77 -152
-28 -185 -26 -213 8 -9 10 -5 16 21 25 59 21 85 120 53 195 -14 33 -102 125
-111 116 -13 -13 10 -113 32 -139 27 -32 30 -62 7 -84 -23 -24 -37 -20 -83 24
-44 42 -71 50 -90 26 -22 -27 -9 -70 26 -86 18 -8 33 -22 33 -31 0 -8 14 -34
30 -56 18 -25 30 -51 28 -65 -4 -31 33 -118 50 -118 8 0 66 9 130 20 65 11
185 26 267 34 165 15 707 19 820 6 39 -4 104 -11 145 -14 41 -4 132 -16 202
-26 70 -11 131 -20 135 -20 13 0 55 104 48 121 -3 8 11 36 30 63 19 27 35 54
35 60 0 6 10 16 22 21 33 15 44 39 32 72 -15 44 -48 42 -96 -6 -41 -42 -65
-50 -86 -29 -19 19 -14 48 13 84 18 24 27 51 31 96 l7 63 -52 -50 c-29 -27
-59 -65 -67 -84 -33 -78 -5 -175 56 -196 l34 -11 -22 -22 c-26 -26 -26 -26
-158 -6 -111 18 -154 41 -154 84 0 26 8 25 37 -2 32 -30 37 -19 19 43 -19 63
-21 109 -4 109 7 0 25 -12 40 -27 36 -34 52 -26 90 43 35 61 32 84 -11 105
l-33 16 47 39 c113 92 142 126 149 176 18 124 -69 258 -203 309 -65 25 -217
38 -247 20 -18 -10 -18 -10 2 -11 11 0 48 -9 81 -21 110 -37 194 -137 178
-211 -4 -16 -31 -56 -60 -89 -58 -65 -67 -91 -53 -151 5 -22 7 -43 4 -45 -3
-3 -20 4 -39 16 l-35 21 -31 -29 c-36 -33 -51 -68 -51 -117 0 -46 21 -53 76
-26 57 28 60 9 8 -48 -62 -68 -130 -50 -154 41 -10 36 -8 61 14 169 53 261 25
350 -128 406 l-66 24 6 -103 c4 -59 2 -117 -4 -138 l-10 -36 57 -16 c31 -9 65
-24 74 -35 16 -18 16 -24 1 -97 -38 -186 19 -315 147 -332 23 -3 38 -10 36
-17 -9 -27 -54 -33 -202 -27 -129 5 -154 9 -177 26 -49 37 -63 79 -18 55 42
-22 42 -3 0 45 -24 27 -48 63 -55 79 l-13 29 -7 -24 c-4 -13 -24 -44 -44 -69
-59 -71 -59 -74 -17 -66 48 9 46 -6 -6 -44 l-41 -30 -157 0 c-108 0 -160 4
-168 12 -19 19 -14 28 14 28 59 0 128 56 154 126 15 39 14 138 -4 219 -18 86
-10 98 77 122 57 16 59 18 53 46 -3 16 -6 78 -6 137 l0 108 -44 -13 c-162 -49
-207 -159 -155 -375 11 -47 23 -114 26 -150 4 -57 2 -69 -19 -100 -20 -29 -31
-36 -65 -38 -37 -3 -44 1 -77 39 -49 58 -45 79 9 43 34 -22 69 -15 73 16 6 40
-16 97 -49 124 -36 30 -55 32 -81 9 -25 -22 -29 -15 -16 35 14 58 6 78 -56
145 -63 67 -75 106 -51 164 31 73 106 128 211 154 38 10 44 14 28 20 -31 12
-135 9 -194 -7z m634 -890 c21 -8 21 -48 0 -65 -31 -26 -70 25 -44 56 14 17
21 18 44 9z m-474 -64 c0 -27 -3 -30 -30 -30 -25 0 -30 4 -30 23 0 30 7 37 37
37 19 0 23 -5 23 -30z m964 14 c16 -42 -15 -64 -53 -37 -17 11 -19 18 -11 34
13 23 55 25 64 3z m-1275 -57 c8 -11 5 -16 -14 -25 -27 -12 -41 -2 -31 23 7
19 30 19 45 2z m1591 -5 c0 -16 -22 -30 -41 -25 -31 8 -23 33 11 33 17 0 30
-4 30 -8z"/>
<path d="M5046 9088 l-29 -11 6 -126 c4 -115 18 -183 54 -277 4 -10 -3 -14
-21 -14 -37 0 -74 -27 -96 -69 -16 -32 -16 -40 -5 -68 7 -17 25 -39 39 -48 25
-17 28 -17 66 10 22 15 45 34 51 41 9 11 19 7 54 -21 23 -19 53 -35 67 -35 41
0 83 62 72 105 -10 40 -61 85 -95 85 -34 0 -33 -4 -13 51 36 101 59 322 36
355 -20 30 -128 43 -186 22z"/>
<path d="M2886 8989 c-255 -109 -487 -384 -554 -655 -23 -93 -35 -187 -22
-179 5 3 12 -5 16 -17 4 -13 12 -27 18 -31 7 -6 6 -7 -4 -4 -9 3 -20 -4 -26
-18 -10 -20 -8 -22 14 -22 13 0 28 -6 32 -13 10 -16 38 3 160 106 219 185 339
359 404 587 28 98 51 256 39 268 -4 4 -39 -6 -77 -22z"/>
<path d="M7293 8938 c14 -185 97 -393 223 -559 54 -70 251 -259 313 -299 25
-16 51 -34 58 -40 17 -14 30 -12 37 6 5 13 3 14 -7 6 -10 -8 -16 -6 -26 10
-12 20 -11 21 18 15 37 -8 52 13 32 44 -8 14 -8 19 0 19 9 0 10 21 6 73 -27
305 -267 631 -569 772 -87 41 -92 38 -85 -47z m598 -811 c-10 -9 -11 -8 -5 6
3 10 9 15 12 12 3 -3 0 -11 -7 -18z m46 -39 c-3 -8 -6 -5 -6 6 -1 11 2 17 5
13 3 -3 4 -12 1 -19z"/>
<path d="M3525 8720 c-106 -30 -286 -100 -373 -144 -46 -23 -52 -30 -46 -49
15 -50 24 -51 128 -2 98 45 236 95 374 135 74 21 82 31 66 74 -8 22 -33 19
-149 -14z"/>
<path d="M6578 8725 c-17 -37 0 -48 112 -80 121 -34 243 -78 347 -125 77 -36
83 -37 97 -21 32 35 20 50 -76 96 -129 60 -406 155 -453 155 -9 0 -21 -11 -27
-25z"/>
<path d="M2185 8640 c-13 -14 -15 -27 -10 -47 4 -15 10 -68 12 -118 7 -149 44
-155 51 -8 2 49 8 92 13 98 15 16 10 61 -9 78 -24 22 -35 21 -57 -3z"/>
<path d="M8013 8648 c-19 -25 -21 -46 -7 -73 8 -16 14 -57 14 -104 0 -82 9
-107 34 -98 13 5 16 22 16 82 0 42 5 96 11 121 10 39 9 47 -6 64 -21 23 -48
26 -62 8z"/>
<path d="M1995 8459 c-221 -235 -339 -569 -322 -913 6 -118 34 -273 58 -317 9
-19 13 -20 20 -7 4 8 8 35 8 59 0 24 2 67 4 94 3 28 5 58 6 68 1 10 9 17 22
17 11 0 18 4 15 9 -11 17 5 39 24 34 10 -3 21 0 24 6 4 6 1 11 -6 11 -10 0
-10 2 1 9 7 5 22 6 34 3 14 -3 18 -1 13 6 -4 7 -2 12 5 12 6 0 9 -8 6 -20 -3
-11 -1 -18 3 -15 5 3 10 2 13 -2 2 -5 2 -3 1 4 -5 22 17 26 23 4 3 -11 9 -18
15 -15 5 3 6 15 3 27 -2 12 -2 16 1 10 3 -7 9 -13 13 -13 12 0 126 226 156
310 41 115 52 198 44 325 -5 61 -15 142 -24 180 -17 73 -63 176 -81 182 -6 2
-41 -29 -79 -68z m-202 -970 c-4 -16 -8 -17 -14 -7 -5 7 -4 14 1 16 6 2 7 9 4
14 -4 6 -2 8 4 5 5 -4 8 -16 5 -28z m-33 -109 c0 -5 -2 -10 -4 -10 -3 0 -8 5
-11 10 -3 6 -1 10 4 10 6 0 11 -4 11 -10z"/>
<path d="M8143 8473 c-57 -109 -87 -312 -68 -458 10 -78 60 -220 121 -340 55
-110 119 -204 107 -157 -3 13 -1 22 6 22 7 0 9 -5 5 -12 -6 -10 -5 -10 8 -1 8
7 19 9 23 5 5 -4 6 0 3 9 -4 9 -1 16 7 16 7 0 11 -6 8 -13 -2 -6 0 -15 6 -19
6 -3 11 2 11 12 0 15 2 16 10 3 9 -13 11 -13 21 0 9 13 10 12 5 -2 -5 -17 9
-24 37 -19 5 1 6 -3 2 -9 -3 -6 -12 -7 -18 -3 -8 4 -7 1 1 -9 11 -14 10 -18
-5 -27 -10 -6 -13 -11 -6 -11 6 0 15 5 18 10 10 17 25 11 25 -9 0 -11 5 -23
10 -26 6 -3 10 0 10 7 0 10 2 10 9 -1 5 -8 14 -10 22 -5 11 6 11 4 0 -10 -11
-13 -16 -14 -22 -4 -7 10 -9 9 -9 -3 0 -23 11 -30 27 -18 9 9 13 8 13 0 0 -6
-5 -11 -11 -11 -5 0 -7 -5 -3 -12 4 -6 3 -8 -4 -4 -18 11 -22 -9 -7 -37 11
-22 11 -25 -2 -20 -13 5 -14 3 -5 -13 6 -10 7 -25 2 -34 -10 -20 7 -67 20 -54
18 18 51 169 60 277 26 311 -61 632 -234 862 -35 47 -158 175 -167 175 -3 0
-20 -26 -36 -57z m344 -988 c9 -24 -1 -27 -15 -5 -8 13 -8 20 -2 20 6 0 13 -7
17 -15z"/>
<path d="M3717 8276 c-129 -65 -95 -260 48 -279 101 -13 188 74 170 171 -19
102 -125 155 -218 108z m123 -86 c27 -27 25 -66 -5 -95 -30 -31 -68 -32 -95
-3 -24 26 -26 65 -4 96 20 29 76 30 104 2z"/>
<path d="M6436 8290 c-107 -20 -153 -172 -75 -249 71 -71 195 -51 241 40 34
66 17 136 -44 182 -40 30 -71 36 -122 27z m87 -98 c37 -32 10 -104 -43 -117
-36 -8 -80 27 -80 64 0 66 72 97 123 53z"/>
<path d="M3025 8273 c-185 -19 -389 -95 -500 -186 -80 -65 -195 -201 -195
-230 0 -4 -8 -19 -17 -34 -23 -34 -27 -59 -7 -42 11 9 15 8 20 -6 5 -13 9 -14
15 -3 7 11 9 11 9 -1 0 -9 8 -11 25 -7 17 4 25 2 25 -6 0 -9 3 -8 10 2 7 11
10 11 10 2 0 -7 5 -10 12 -6 6 4 30 9 54 11 137 12 310 83 424 176 105 85 286
324 248 328 -33 4 -106 5 -133 2z"/>
<path d="M7100 8270 c-12 -7 -5 -22 35 -82 81 -117 133 -176 213 -239 126
-101 301 -176 419 -182 29 -1 53 -6 53 -11 0 -5 6 -4 13 2 6 5 24 9 39 7 16
-2 35 5 49 18 l22 21 -6 -25 c-6 -22 -5 -23 8 -5 12 16 12 24 -6 59 -76 147
-193 263 -342 336 -111 55 -176 74 -324 96 -113 17 -152 18 -173 5z"/>
<path d="M3216 8115 c-112 -40 -167 -175 -115 -282 53 -109 220 -134 307 -47
l34 34 137 -129 c75 -71 163 -157 196 -190 l59 -61 133 0 132 0 70 -72 71 -73
0 -82 0 -83 35 0 35 0 0 103 0 102 -93 93 -92 92 -129 0 -129 0 -76 73 c-42
40 -128 122 -191 183 -111 105 -115 111 -121 159 -10 85 -56 148 -131 179 -45
19 -81 20 -132 1z m135 -88 c79 -53 62 -176 -28 -214 -47 -19 -95 -10 -136 27
-29 26 -32 34 -31 85 0 53 3 60 37 91 46 43 105 47 158 11z"/>
<path d="M3237 7962 c-22 -24 -21 -55 1 -75 26 -24 68 -21 86 5 21 30 20 44
-4 68 -25 25 -62 26 -83 2z"/>
<path d="M6915 8118 c-79 -29 -134 -103 -135 -180 0 -39 -25 -66 -320 -346
l-75 -72 -127 0 -127 0 -90 -92 -91 -92 0 -103 0 -103 35 0 35 0 0 83 0 83 68
73 67 73 100 0 c167 -1 150 -10 363 195 l189 182 37 -34 c92 -84 252 -60 306
45 48 95 16 212 -74 265 -50 29 -118 39 -161 23z m120 -82 c40 -17 65 -60 65
-115 0 -76 -75 -129 -155 -111 -48 11 -73 35 -85 82 -31 112 64 190 175 144z"/>
<path d="M6936 7964 c-21 -21 -20 -57 2 -77 37 -34 92 -11 92 38 0 13 -7 31
-16 39 -8 9 -26 16 -39 16 -13 0 -31 -7 -39 -16z"/>
<path d="M4935 8073 c-86 -3 -314 -21 -355 -28 -14 -2 -76 -11 -139 -20 -63
-9 -125 -21 -138 -26 -26 -10 -43 -43 -35 -71 9 -35 36 -40 134 -22 149 26
178 30 288 39 47 4 96 9 110 11 14 2 160 4 325 4 314 1 492 -12 704 -49 132
-23 151 -19 151 34 0 43 -11 49 -121 69 -286 53 -572 71 -924 59z"/>
<path d="M3838 7943 c-14 -3 -18 -15 -18 -53 0 -48 1 -49 97 -144 l97 -96 203
0 203 0 0 -260 0 -260 34 0 c19 0 36 6 38 13 3 6 4 135 3 285 -1 191 -5 276
-14 285 -7 7 -52 12 -119 13 -59 0 -154 2 -212 3 l-105 1 -72 68 c-55 51 -73
74 -73 94 0 54 -13 64 -62 51z"/>
<path d="M6367 7944 c-4 -4 -7 -21 -7 -38 0 -37 1 -35 -82 -114 l-65 -64 -213
-1 c-163 0 -215 -4 -225 -14 -11 -10 -14 -74 -15 -298 l-1 -285 41 0 40 0 0
260 0 260 203 0 203 0 93 94 92 94 -3 54 c-3 48 -5 53 -28 56 -14 2 -29 0 -33
-4z"/>
<path d="M2223 7927 c-4 -6 -39 -75 -79 -152 -69 -136 -150 -274 -287 -497
-157 -254 -353 -712 -470 -1099 -48 -158 -101 -412 -89 -424 16 -16 39 -3 40
23 4 137 160 644 302 982 68 162 182 386 266 525 150 246 354 614 354 637 0
12 -30 16 -37 5z"/>
<path d="M8046 7818 c69 -138 163 -302 267 -468 83 -133 262 -480 320 -620 19
-47 65 -168 101 -270 243 -685 286 -1064 207 -1865 -8 -88 -7 -102 13 -102 10
0 17 31 25 106 6 58 16 151 23 206 6 55 12 226 12 380 1 293 -11 420 -64 684
-46 226 -158 571 -290 893 -105 253 -140 320 -357 673 -82 134 -106 177 -212
378 -47 87 -68 117 -82 117 -17 0 -12 -14 37 -112z"/>
<path d="M4597 7453 c2 -153 3 -288 3 -300 0 -20 5 -23 35 -23 l35 0 0 300 0
300 -37 0 -38 0 2 -277z"/>
<path d="M4780 7430 l0 -300 35 0 35 0 0 300 0 300 -35 0 -35 0 0 -300z"/>
<path d="M4970 7598 c-1 -73 -2 -207 -2 -298 -1 -91 1 -166 5 -167 4 -2 21 -3
37 -3 l30 0 -2 298 -3 297 -32 3 -33 3 0 -133z"/>
<path d="M5220 7427 l0 -303 35 4 35 4 0 299 0 299 -35 0 -35 0 0 -303z"/>
<path d="M5403 7430 l-2 -300 39 0 40 0 0 300 0 300 -38 0 -38 0 -1 -300z"/>
<path d="M5587 7443 c1 -159 2 -294 2 -300 1 -8 15 -13 36 -13 l35 0 0 300 0
300 -37 0 -38 0 2 -287z"/>
<path d="M2505 7653 c-263 -41 -461 -174 -568 -380 -27 -53 -30 -64 -18 -75
12 -11 13 -10 8 4 -7 21 18 45 29 27 4 -8 3 -9 -4 -5 -7 4 -12 4 -12 -1 0 -9
58 -38 75 -38 6 0 13 -4 16 -9 4 -5 12 -5 18 -2 6 4 41 9 79 11 145 8 354 89
487 189 96 73 243 252 222 272 -8 8 -288 14 -332 7z"/>
<path d="M7442 7653 c-39 -5 -38 -10 13 -88 129 -194 432 -367 666 -380 31 -1
62 -6 68 -10 6 -3 11 -2 11 3 0 5 11 7 24 5 14 -3 34 2 46 10 12 9 29 13 38
10 11 -5 13 -2 8 8 -4 8 -1 6 7 -3 8 -10 18 -18 22 -18 9 0 -2 62 -13 70 -4 3
-28 36 -52 75 -113 174 -291 284 -513 314 -75 11 -254 12 -325 4z"/>
<path d="M3144 7535 c-67 -33 -95 -78 -101 -157 -4 -57 -1 -68 27 -115 17 -29
35 -53 40 -53 6 0 10 -59 10 -152 l0 -151 97 -93 c54 -52 100 -90 104 -86 4 4
9 20 13 35 6 25 -1 36 -64 101 l-70 73 0 116 0 117 33 0 c45 1 109 32 146 72
21 23 39 34 54 32 12 -1 78 -3 146 -3 l123 -1 72 -70 73 -70 111 0 c61 0 113
3 115 8 3 4 3 19 0 35 l-5 27 -90 0 -89 0 -51 48 c-29 26 -64 59 -79 74 -28
27 -29 27 -181 30 l-153 3 -6 42 c-12 89 -95 163 -185 163 -23 0 -62 -11 -90
-25z m149 -116 c28 -34 22 -83 -14 -113 -54 -46 -114 -24 -126 46 -5 32 -1 41
26 69 27 26 37 30 64 25 18 -3 40 -16 50 -27z"/>
<path d="M6934 7537 c-43 -21 -55 -34 -78 -78 -14 -29 -26 -66 -26 -81 l0 -28
-152 0 -152 0 -77 -75 -77 -75 -91 0 -91 0 0 -35 0 -35 109 0 109 0 74 69 75
70 143 5 143 6 34 -39 c34 -41 101 -71 155 -71 l28 0 0 -111 0 -111 -70 -72
c-64 -66 -70 -76 -70 -114 0 -24 5 -42 11 -42 13 0 176 157 191 183 5 10 12
82 14 159 4 133 5 142 30 171 32 38 42 62 48 124 16 142 -144 245 -280 180z
m140 -108 c20 -16 26 -29 26 -60 0 -92 -106 -122 -148 -42 -19 35 -14 63 17
94 35 34 68 37 105 8z"/>
<path d="M1318 7508 c-54 -82 -118 -252 -149 -393 -20 -93 -18 -399 5 -505 26
-126 84 -249 125 -265 21 -8 24 1 6 19 -9 9 -13 16 -8 16 5 0 15 -6 22 -12 10
-11 12 -10 9 2 -2 8 -9 21 -15 28 -7 7 -13 19 -13 25 0 9 2 9 8 1 11 -18 38
-12 39 8 2 20 -13 25 -20 6 -4 -10 -6 -10 -6 -1 -1 16 10 22 48 25 27 2 46 18
21 18 -5 0 -10 5 -10 11 0 8 6 7 17 -2 13 -11 17 -11 21 -1 3 10 7 10 18 1 16
-13 17 -10 65 134 70 207 59 463 -31 696 -31 81 -104 202 -126 208 -6 2 -18
-7 -26 -19z"/>
<path d="M8893 7508 c-32 -34 -100 -166 -127 -245 -42 -123 -60 -252 -53 -382
7 -130 22 -204 68 -323 28 -73 33 -79 45 -63 12 16 13 16 20 -9 3 -14 10 -23
15 -20 5 3 7 10 4 15 -4 5 -1 9 4 9 6 0 11 -10 11 -22 0 -17 3 -19 9 -10 6 11
10 10 16 -5 5 -10 7 -23 6 -30 -1 -6 3 -14 9 -18 5 -3 7 0 4 8 -3 8 1 14 10
14 8 0 12 -6 9 -14 -3 -8 2 -13 13 -14 14 -1 13 -3 -6 -9 l-25 -8 25 -1 c24
-2 24 -2 6 -16 -11 -8 -17 -18 -13 -22 12 -11 48 30 78 89 107 211 113 609 13
874 -28 75 -104 224 -114 224 -4 0 -16 -10 -27 -22z"/>
<path d="M2230 7094 c-124 -19 -230 -48 -305 -84 -83 -40 -184 -126 -222 -191
-44 -74 -49 -89 -29 -89 9 0 16 5 16 12 0 6 3 9 6 5 3 -3 3 -11 -2 -18 -12
-19 -10 -66 2 -66 7 0 10 12 7 29 -3 21 0 28 11 28 9 0 16 -8 16 -18 0 -20 34
-61 53 -63 7 -1 19 -1 27 0 11 1 11 -1 -3 -9 -9 -6 -21 -9 -26 -5 -5 3 -12 1
-16 -5 -3 -5 -1 -10 5 -10 7 0 9 -7 6 -17 -5 -13 -1 -12 17 5 18 17 27 20 32
11 5 -7 4 -10 -2 -6 -6 4 -13 0 -16 -8 -5 -11 -1 -12 17 -5 13 5 26 7 28 4 7
-6 137 40 198 71 160 81 305 225 384 382 14 29 26 55 26 58 0 10 -134 3 -230
-11z m-476 -400 c3 -8 2 -12 -4 -9 -6 3 -10 10 -10 16 0 14 7 11 14 -7z"/>
<path d="M7800 7097 c0 -30 98 -175 167 -248 122 -128 315 -241 414 -243 26
-1 45 -4 43 -7 -2 -3 9 -6 25 -5 19 1 28 6 26 16 -3 18 24 52 36 44 16 -10 9
9 -8 23 -11 9 -6 8 11 -2 17 -10 25 -12 21 -4 -6 9 -3 11 8 6 11 -4 14 -2 10
9 -3 8 0 20 6 28 6 7 8 16 4 20 -4 4 0 4 10 0 17 -6 17 -7 0 -20 -17 -12 -16
-13 5 -7 26 6 27 12 7 60 -38 91 -148 199 -257 252 -60 29 -182 57 -321 76
-146 19 -207 19 -207 2z"/>
<path d="M2871 7014 c-19 -14 -22 -22 -16 -53 4 -20 8 -70 8 -111 l2 -75 -45
-6 c-79 -9 -126 -44 -155 -112 -40 -97 7 -222 98 -256 45 -17 124 -13 167 9
32 16 56 41 97 99 2 3 47 -25 101 -61 53 -36 109 -69 125 -72 25 -6 27 -4 27
28 0 51 -8 64 -48 77 -61 19 -202 119 -202 143 0 24 -29 76 -64 112 -20 22
-22 34 -21 102 2 42 6 93 10 113 6 30 3 41 -14 58 -25 25 -39 26 -70 5z m22
-368 c9 -7 22 -28 28 -46 10 -27 9 -36 -8 -58 -31 -42 -67 -56 -100 -40 -57
27 -68 94 -21 138 25 23 74 26 101 6z"/>
<path d="M3704 7015 c-68 -21 -118 -52 -144 -86 -14 -18 -33 -40 -42 -48 -10
-9 -18 -20 -18 -26 0 -6 -11 -19 -25 -29 -13 -10 -32 -41 -42 -70 -17 -48 -18
-141 -18 -1736 l0 -1685 21 -57 c38 -98 112 -180 208 -230 98 -50 35 -48 1490
-48 953 0 1371 3 1400 11 134 36 239 137 287 278 18 52 19 118 19 1725 0 1404
-2 1679 -14 1724 -29 108 -118 209 -226 258 l-65 29 -1395 2 c-1115 1 -1403
-1 -1436 -12z m1264 -505 c29 -17 66 -49 82 -72 57 -78 62 -113 67 -453 3
-201 0 -315 -6 -325 -8 -12 -38 -15 -158 -15 -93 1 -156 5 -169 13 -31 17 -43
76 -57 267 l-12 170 -217 3 -218 2 0 -43 c0 -24 11 -75 24 -113 24 -71 123
-275 180 -374 103 -175 241 -404 324 -535 154 -244 227 -378 263 -482 l34 -98
0 -375 0 -375 -26 -55 c-32 -69 -108 -146 -157 -160 -46 -13 -841 -13 -896 0
-50 11 -114 56 -143 99 -45 67 -48 95 -48 481 l0 365 168 3 c92 1 182 -1 200
-6 l32 -8 7 -229 c4 -126 11 -232 15 -236 12 -12 332 -21 383 -12 43 8 45 10
48 46 10 119 -35 208 -385 767 -93 147 -253 411 -253 416 0 3 -12 23 -26 46
-38 60 -120 227 -148 301 -13 35 -29 96 -35 135 -16 105 -14 624 2 690 25 93
90 163 171 182 17 5 227 8 466 9 l435 1 53 -30z m1430 -172 l2 -198 -27 -1
c-16 -1 -48 -2 -73 -4 -25 -1 -66 -3 -93 -4 l-47 -1 2 -1132 3 -1133 118 -3
117 -3 0 -189 0 -190 -400 -2 c-220 -2 -446 -3 -502 -3 l-103 0 0 190 0 190
125 5 125 5 0 1130 0 1130 -120 3 c-80 2 -122 7 -127 15 -9 15 -11 381 -1 390
3 4 230 6 502 5 l496 -3 3 -197z"/>
<path d="M7309 7009 c-16 -16 -19 -27 -14 -47 4 -15 10 -67 12 -115 l4 -88
-35 -39 c-20 -22 -41 -59 -47 -82 -10 -39 -19 -48 -92 -95 -45 -28 -94 -55
-110 -58 -39 -10 -65 -47 -59 -85 4 -29 7 -31 33 -26 16 3 73 37 127 76 84 61
98 68 107 53 22 -36 70 -85 96 -99 31 -16 111 -21 150 -9 109 33 161 169 104
274 -32 59 -82 93 -144 99 l-49 4 -7 68 c-4 43 -3 75 4 88 37 70 -26 135 -80
81z m144 -360 c47 -21 60 -80 27 -122 -26 -33 -63 -41 -99 -23 -32 17 -41 34
-41 79 0 60 56 92 113 66z"/>
<path d="M1655 6710 c3 -5 8 -10 11 -10 2 0 4 5 4 10 0 6 -5 10 -11 10 -5 0
-7 -4 -4 -10z"/>
<path d="M1725 6660 c-3 -5 -1 -10 4 -10 6 0 11 5 11 10 0 6 -2 10 -4 10 -3 0
-8 -4 -11 -10z"/>
<path d="M1737 6623 c3 -7 6 -13 8 -13 2 0 5 6 8 13 3 8 -1 14 -8 14 -7 0 -11
-6 -8 -14z"/>
<path d="M847 6548 c-75 -164 -104 -474 -63 -682 47 -242 160 -450 301 -554
49 -36 61 -41 63 -27 2 9 -6 23 -17 32 -12 8 -19 19 -16 24 4 5 0 9 -8 9 -8 0
-21 8 -28 18 -13 15 -12 16 4 3 15 -12 17 -12 11 3 -3 9 -11 16 -16 16 -6 0
-7 7 -4 16 3 8 2 12 -4 9 -6 -3 -11 -3 -11 2 -6 34 -5 71 2 84 5 9 3 21 -4 29
-9 10 -9 11 1 5 8 -4 19 0 27 11 13 17 14 17 15 2 0 -11 6 -16 20 -13 11 2 20
-2 20 -8 0 -7 -9 -13 -20 -13 -11 0 -20 4 -20 8 0 15 -18 8 -25 -9 -12 -28
-15 -90 -5 -73 5 8 7 22 4 32 -2 9 1 20 8 25 19 12 62 11 71 -1 5 -7 7 -4 3 7
-3 9 -1 17 4 17 5 0 7 8 4 18 -5 14 -4 14 4 2 6 -8 8 -18 6 -22 -3 -4 2 -8 10
-8 8 0 19 -8 25 -17 8 -15 11 -14 18 12 13 46 8 341 -6 425 -30 169 -118 379
-214 509 -56 76 -117 141 -132 141 -7 0 -19 -15 -28 -32z m371 -1044 c-4 -3
-12 5 -18 18 -12 22 -12 22 6 6 10 -10 15 -20 12 -24z"/>
<path d="M9312 6523 c-180 -210 -290 -502 -293 -786 -2 -142 13 -253 32 -241
8 4 7 10 -2 16 -10 7 -7 8 9 5 16 -4 22 -2 19 7 -3 7 -1 19 5 27 8 11 9 10 4
-3 -7 -22 4 -23 29 -4 17 12 20 11 30 -8 6 -11 19 -20 28 -18 11 2 21 -7 27
-23 13 -33 13 -44 0 -25 -8 12 -10 10 -10 -8 0 -13 -4 -21 -9 -17 -5 3 -13 0
-17 -6 -4 -7 -3 -10 2 -7 5 3 14 1 19 -6 12 -12 -18 -50 -30 -38 -3 4 -3 -1 0
-10 4 -10 -5 -29 -25 -52 -45 -51 -33 -62 26 -22 142 96 261 301 311 538 12
60 17 128 17 248 0 181 -10 247 -55 393 -38 117 -47 121 -117 40z"/>
<path d="M2086 6539 c-80 -12 -244 -69 -309 -109 -120 -72 -240 -194 -304
-308 -42 -75 -64 -130 -96 -246 -22 -76 -23 -86 -8 -84 9 2 19 8 23 13 5 6 8
5 8 -2 0 -7 7 -13 16 -13 9 0 12 5 8 13 -6 9 -4 9 6 0 12 -11 11 -15 -6 -27
-18 -14 -18 -15 6 -10 20 5 22 3 10 -5 -8 -6 -10 -11 -4 -11 18 0 37 27 24 35
-5 3 -10 14 -10 23 1 13 4 11 14 -7 9 -16 11 -34 5 -53 -6 -22 -4 -28 7 -28 8
0 12 5 9 10 -3 6 -3 20 1 32 6 21 7 21 20 4 7 -11 18 -15 25 -10 8 5 10 3 4
-5 -4 -7 -15 -11 -24 -8 -12 3 -16 -4 -17 -30 0 -21 3 -29 8 -21 6 10 8 8 8
-5 0 -16 3 -16 34 -3 149 62 403 341 515 563 59 118 117 305 94 302 -4 -1 -34
-5 -67 -10z"/>
<path d="M8100 6529 c0 -43 72 -236 121 -325 116 -209 332 -443 471 -510 33
-15 37 -15 61 1 15 9 24 22 21 27 -4 6 -10 5 -15 -3 -6 -10 -8 -7 -8 11 1 14
-2 33 -6 43 -6 13 -4 16 9 11 9 -3 16 -11 16 -16 0 -6 7 -8 15 -4 8 3 15 0 15
-7 1 -7 8 1 16 17 13 22 13 31 3 40 -9 8 -11 7 -6 -5 8 -23 -5 -40 -23 -29
-12 8 -12 10 -1 10 7 0 11 6 8 14 -8 20 19 28 33 11 7 -8 10 -22 6 -30 -3 -9
-2 -13 4 -10 6 3 10 15 10 26 0 16 4 19 21 14 19 -6 20 -4 13 32 -13 74 -56
199 -89 258 -127 228 -378 397 -652 439 -39 6 -43 4 -43 -15z m623 -796 c-7
-2 -19 -2 -25 0 -7 3 -2 5 12 5 14 0 19 -2 13 -5z"/>
<path d="M2849 6158 c-51 -46 -110 -98 -131 -116 l-38 -34 -33 21 c-52 32
-125 37 -181 13 -57 -26 -71 -39 -96 -94 -52 -115 9 -240 132 -267 26 -6 53
-9 60 -7 7 2 25 7 40 10 33 8 94 59 113 96 l14 27 275 -3 276 -4 0 40 0 40
-268 0 c-355 0 -356 1 -168 169 l125 111 156 0 156 0 -3 38 -3 37 -167 3 -168
2 -91 -82z m-249 -238 c30 -30 27 -85 -6 -115 -43 -40 -91 -29 -119 26 -17 32
-13 62 13 92 21 24 86 23 112 -3z"/>
<path d="M6970 6200 l0 -40 156 0 155 0 96 -82 c180 -155 169 -142 155 -172
l-12 -26 -275 0 -275 0 0 -41 0 -41 281 4 280 4 15 -28 c46 -89 173 -130 262
-84 138 71 130 277 -13 346 -55 27 -126 23 -182 -10 -19 -11 -36 -20 -39 -20
-2 0 -63 52 -134 115 l-131 115 -169 0 -170 0 0 -40z m808 -287 c12 -13 22
-35 22 -49 0 -31 -50 -84 -80 -84 -30 0 -80 53 -80 85 0 16 12 38 30 56 34 35
71 32 108 -8z"/>
<path d="M3203 6090 c-24 -10 -27 -20 -17 -57 5 -19 13 -23 50 -23 l44 0 0 45
c0 43 -1 45 -27 44 -16 0 -38 -4 -50 -9z"/>
<path d="M6982 6091 c-8 -5 -12 -23 -10 -47 3 -37 5 -39 36 -38 48 3 62 11 62
38 0 43 -10 56 -44 56 -17 0 -37 -4 -44 -9z"/>
<path d="M1926 5847 c-12 -9 -17 -23 -14 -47 3 -31 9 -38 56 -59 l52 -25 0
-88 c0 -55 -4 -88 -11 -88 -6 0 -9 -16 -7 -37 l3 -38 338 -3 338 -2 -3 32 -3
33 -287 3 -288 2 0 103 0 103 -36 35 c-20 18 -42 46 -50 62 -16 30 -57 37 -88
14z"/>
<path d="M8243 5833 c-10 -16 -33 -42 -52 -59 l-35 -30 3 -107 2 -107 -293 -2
-293 -3 -3 -32 -3 -33 334 0 c296 0 336 2 341 16 9 25 7 64 -4 64 -6 0 -10 33
-10 80 0 67 3 83 20 100 11 11 28 20 38 20 26 1 50 23 58 54 15 60 -69 92
-103 39z"/>
<path d="M8870 5790 c0 -5 5 -10 10 -10 6 0 10 5 10 10 0 6 -4 10 -10 10 -5 0
-10 -4 -10 -10z"/>
<path d="M3184 5726 c-12 -48 3 -66 52 -66 l44 0 0 45 0 45 -45 0 c-39 0 -45
-3 -51 -24z"/>
<path d="M6977 5743 c-4 -3 -7 -24 -7 -45 l0 -39 48 3 47 3 3 43 3 42 -44 0
c-24 0 -47 -3 -50 -7z"/>
<path d="M2888 5729 c-12 -7 -18 -22 -18 -48 0 -42 10 -55 55 -65 16 -4 54
-32 85 -63 30 -30 64 -55 75 -56 11 0 59 0 108 1 l87 2 0 46 0 45 -52 -3 -53
-3 1 -35 c1 -19 -1 -29 -3 -22 -3 8 -24 22 -47 32 -51 23 -131 96 -141 130 -4
14 -12 31 -17 38 -12 14 -56 15 -80 1z"/>
<path d="M7288 5723 c-9 -10 -19 -28 -22 -40 -4 -13 -11 -23 -15 -23 -5 0 -28
-18 -52 -41 -42 -39 -58 -48 -106 -63 -19 -6 -23 -3 -23 13 0 24 -30 35 -70
26 -28 -6 -30 -10 -30 -50 0 -39 3 -44 28 -49 15 -3 59 -5 98 -5 l72 1 70 64
c42 38 76 62 84 59 23 -9 61 28 61 58 0 56 -62 88 -95 50z"/>
<path d="M1270 5663 c0 -5 -7 -73 -15 -152 -17 -168 -20 -550 -5 -699 13 -139
39 -285 52 -297 11 -10 4 202 -8 255 -3 14 -8 141 -11 283 -5 232 5 493 23
590 5 22 2 27 -15 27 -12 0 -21 -3 -21 -7z"/>
<path d="M2736 5624 c-19 -18 -21 -75 -4 -92 7 -7 22 -12 35 -12 15 0 57 -31
120 -90 54 -49 105 -90 114 -90 25 0 53 26 46 43 -3 9 -52 53 -109 98 -61 48
-106 92 -110 106 -15 52 -59 70 -92 37z"/>
<path d="M7437 5618 c-8 -13 -18 -30 -23 -40 -5 -9 -57 -55 -116 -103 -60 -47
-108 -93 -108 -100 0 -15 30 -35 52 -35 7 0 59 41 115 90 56 50 106 90 110 89
27 -5 44 5 59 32 15 30 15 33 -4 58 -26 35 -66 39 -85 9z"/>
<path d="M1764 5601 c-214 -99 -372 -290 -429 -517 -22 -87 -26 -277 -7 -296
11 -11 13 -10 10 7 -2 13 2 19 11 17 7 -1 19 2 26 8 10 9 16 7 24 -8 6 -11 9
-21 7 -23 -2 -2 5 -13 16 -24 19 -20 19 -20 13 0 -6 19 -6 19 8 3 8 -10 16
-16 19 -13 2 3 5 -1 5 -9 0 -9 -6 -12 -16 -8 -14 5 -14 4 -1 -10 13 -15 17
-15 26 -2 13 17 28 19 18 2 -10 -16 14 0 55 37 58 51 150 184 201 289 71 146
101 269 107 439 6 159 10 155 -93 108z"/>
<path d="M8393 5493 c6 -161 28 -259 92 -405 53 -120 121 -224 203 -308 50
-52 65 -62 72 -50 7 12 12 12 22 2 17 -17 31 -15 24 4 -3 9 -2 12 5 9 5 -4 21
-8 34 -9 18 -3 23 1 19 17 -4 21 9 52 23 52 4 0 7 3 6 8 -4 11 12 8 25 -5 22
-22 18 173 -5 277 -50 222 -229 434 -443 522 -87 36 -83 42 -77 -114z m517
-649 c0 -8 -19 -13 -24 -6 -3 5 1 9 9 9 8 0 15 -2 15 -3z m-56 -82 c2 -4 -4
-8 -14 -8 -10 0 -16 4 -14 8 3 4 9 8 14 8 5 0 11 -4 14 -8z"/>
<path d="M9137 5505 c10 -13 22 -25 27 -25 5 0 -1 11 -14 25 -30 32 -36 32
-13 0z"/>
<path d="M1090 5481 c0 -6 4 -13 10 -16 6 -3 7 1 4 9 -7 18 -14 21 -14 7z"/>
<path d="M3187 5434 c-4 -4 -7 -25 -7 -46 l0 -38 51 0 50 0 -3 43 c-3 41 -4
42 -43 45 -23 2 -44 0 -48 -4z"/>
<path d="M6977 5433 c-4 -3 -7 -24 -7 -45 0 -45 13 -53 65 -44 34 7 35 8 35
51 l0 45 -43 0 c-24 0 -47 -3 -50 -7z"/>
<path d="M2006 5414 c-18 -18 -19 -24 -7 -43 7 -11 69 -13 338 -12 212 1 339
-2 357 -9 15 -5 67 -44 116 -85 l88 -75 188 2 189 3 3 43 3 42 -50 0 c-28 0
-51 -5 -51 -10 0 -7 -45 -9 -126 -6 -136 5 -143 7 -218 76 -23 20 -57 48 -77
63 l-36 27 -351 0 c-305 0 -353 -2 -366 -16z"/>
<path d="M7484 5408 c-16 -12 -56 -45 -89 -74 -33 -28 -70 -56 -82 -63 -12 -6
-69 -11 -131 -11 -88 0 -111 3 -116 15 -6 16 -62 21 -84 6 -8 -5 -12 -23 -10
-47 l3 -39 184 -3 183 -2 65 57 c35 32 80 70 100 86 l37 27 343 0 c189 -1 348
2 353 5 15 9 12 31 -6 49 -13 14 -61 16 -368 16 -349 0 -354 0 -382 -22z"/>
<path d="M613 5394 c-10 -26 5 -242 22 -319 71 -324 257 -617 487 -766 83 -53
135 -53 68 0 -26 20 -28 26 -18 39 11 13 10 14 -9 3 -25 -13 -31 -3 -11 18 11
10 7 11 -16 5 -29 -7 -29 -7 -10 13 10 11 26 18 34 15 11 -3 10 0 -2 11 -10 8
-18 22 -18 31 0 9 -4 16 -10 16 -5 0 -10 5 -10 12 0 6 3 8 7 5 3 -4 11 -2 18
3 6 5 20 11 31 13 10 1 25 6 32 10 7 5 12 3 12 -5 1 -8 6 -6 15 6 15 20 15 20
16 0 1 -10 1 -23 0 -28 -1 -5 4 -4 12 2 27 22 -17 230 -77 366 -39 87 -126
215 -202 296 -83 88 -227 201 -307 241 -50 26 -58 27 -64 13z m562 -884 c3 -5
1 -10 -4 -10 -6 0 -11 5 -11 10 0 6 2 10 4 10 3 0 8 -4 11 -10z m-45 -79 c7
-14 7 -22 -2 -27 -7 -5 -8 -3 -3 6 6 10 4 12 -8 7 -10 -3 -17 -2 -17 3 0 6 5
10 11 10 5 0 7 5 4 10 -3 6 -4 10 -1 10 3 0 10 -9 16 -19z"/>
<path d="M9564 5376 c-272 -146 -478 -408 -555 -706 -28 -108 -31 -166 -11
-188 9 -10 13 -11 7 -3 -8 12 -6 13 10 7 16 -6 18 -5 8 5 -18 18 -16 34 2 19
17 -14 17 -15 33 20 l11 25 -4 -28 c-3 -24 -1 -27 21 -23 23 4 24 3 12 -11
-11 -14 -11 -16 4 -11 10 4 19 1 22 -8 9 -25 7 -27 -11 -13 -15 13 -15 12 -2
-9 13 -21 15 -21 28 -5 13 17 13 17 6 -2 -4 -11 -8 -28 -9 -37 0 -9 -3 -16 -6
-16 -23 2 -30 -5 -26 -27 3 -14 1 -25 -4 -25 -13 0 -71 -61 -68 -72 2 -5 32 6
66 24 71 36 210 160 277 247 108 141 207 360 240 532 19 98 32 339 19 339 -5
0 -37 -15 -70 -34z"/>
<path d="M2563 5190 c-18 -4 -50 -20 -70 -36 l-37 -28 -151 2 -151 3 -35 -28
c-19 -15 -61 -50 -93 -78 -37 -32 -65 -49 -78 -47 -25 4 -68 -35 -68 -63 0
-32 28 -65 56 -65 32 0 64 17 64 34 0 8 37 48 83 89 l84 76 127 3 128 3 -7
-41 c-10 -69 4 -120 46 -168 63 -71 78 -75 307 -76 221 -2 205 2 282 -70 33
-30 34 -31 129 -28 l96 3 3 43 3 42 -50 0 c-44 0 -51 -3 -51 -20 0 -35 -32
-23 -112 42 l-78 63 -212 0 c-197 0 -215 1 -240 20 -59 43 -71 135 -26 197 44
63 120 75 199 31 39 -22 51 -25 61 -15 20 20 -12 63 -72 95 -55 28 -80 31
-137 17z"/>
<path d="M7574 5190 c-58 -13 -114 -64 -114 -104 0 -22 15 -20 77 10 42 21 63
25 99 21 118 -13 164 -165 73 -241 -37 -31 -28 -30 -269 -31 l-196 0 -69 -62
c-61 -55 -108 -80 -104 -55 4 27 -4 32 -51 32 l-50 0 0 -44 0 -43 88 -6 c95
-6 79 -12 181 70 l34 28 211 5 c203 5 212 6 247 30 70 47 112 138 98 213 l-6
37 122 0 123 0 58 -47 c32 -27 83 -72 112 -100 59 -59 82 -64 117 -28 32 31
31 50 -1 82 -19 19 -32 24 -52 20 -21 -4 -36 3 -72 35 -25 22 -65 56 -89 76
l-44 37 -158 2 c-151 1 -160 2 -191 26 -51 38 -110 50 -174 37z"/>
<path d="M2581 5031 c-28 -28 -27 -73 2 -107 20 -23 28 -26 60 -20 41 8 48 21
16 31 -11 4 -18 12 -16 18 3 9 89 12 318 13 l314 2 0 38 c0 37 -2 39 -33 42
-19 2 -41 0 -50 -3 -21 -8 -479 -7 -543 1 -39 5 -50 3 -68 -15z"/>
<path d="M6974 5041 c-10 -10 -3 -70 9 -74 6 -2 143 -2 304 1 160 3 299 2 309
-2 17 -7 17 -9 -5 -25 -29 -22 -23 -36 17 -39 55 -4 93 76 59 122 -12 17 -39
18 -351 19 -186 1 -340 0 -342 -2z"/>
<path d="M3192 4901 c-8 -5 -12 -22 -10 -42 3 -33 5 -34 51 -37 l47 -3 0 45 0
46 -37 0 c-21 0 -44 -4 -51 -9z"/>
<path d="M6970 4865 l0 -45 50 0 50 0 0 45 0 45 -50 0 -50 0 0 -45z"/>
<path d="M1374 4805 c-4 -8 -11 -12 -17 -8 -6 3 -7 1 -3 -6 4 -6 11 -9 16 -6
4 3 10 0 12 -7 3 -7 7 -5 11 6 5 11 3 15 -5 10 -8 -5 -9 -2 -5 9 3 10 4 17 1
17 -2 0 -7 -7 -10 -15z"/>
<path d="M1746 4719 c-73 -80 -168 -252 -204 -369 -35 -113 -55 -264 -48 -355
7 -99 37 -218 66 -267 19 -32 25 -36 50 -32 15 4 31 1 34 -5 4 -6 12 -8 18 -5
7 4 8 2 4 -4 -4 -8 -15 -8 -31 -2 -16 6 -27 6 -31 -2 -4 -7 -3 -8 4 -4 7 4 12
2 12 -3 0 -6 6 -10 13 -8 6 1 11 -5 9 -13 -3 -11 1 -11 16 3 10 9 22 14 26 10
4 -4 4 1 0 11 -6 16 -4 17 14 7 19 -10 21 -9 15 5 -5 13 -3 15 7 9 10 -6 12
-4 6 11 -6 15 -5 16 5 7 16 -16 34 8 84 106 117 234 119 622 3 894 -11 26 -24
47 -28 47 -4 0 -24 -18 -44 -41z"/>
<path d="M8462 4748 c-21 -26 -61 -125 -84 -210 -20 -74 -23 -105 -22 -283 0
-188 2 -206 28 -290 15 -49 42 -121 60 -160 34 -71 75 -130 76 -107 0 6 5 12
11 12 5 0 7 -4 4 -10 -3 -5 2 -10 12 -11 16 0 16 -1 -1 -8 -14 -5 -16 -10 -7
-15 6 -4 19 -2 27 5 12 10 13 9 9 -3 -5 -12 1 -15 24 -14 32 1 41 10 19 19 -7
3 -3 6 10 6 12 1 22 6 22 12 0 5 4 8 9 4 14 -8 57 71 76 140 8 33 18 108 22
166 13 224 -48 431 -188 634 -77 113 -93 130 -107 113z"/>
<path d="M2085 4690 l-90 -5 0 -30 0 -30 249 -3 250 -2 35 -27 c20 -15 38 -30
41 -33 3 -3 54 -45 114 -93 l108 -87 242 2 241 3 3 38 c2 25 -1 37 -10 38 -7
1 -112 1 -234 -1 l-221 -2 -99 84 c-54 46 -120 98 -145 115 l-46 32 -174 3
c-96 2 -214 1 -264 -2z"/>
<path d="M7679 4691 c-23 -6 -93 -63 -226 -185 l-52 -48 -213 3 -213 4 -3 -42
-3 -43 225 0 225 0 73 62 c40 34 75 65 78 68 3 3 32 29 66 58 l60 52 275 2
274 3 3 24 c2 13 0 27 -5 32 -9 9 -525 19 -564 10z"/>
<path d="M3204 4612 c-16 -10 -26 -49 -19 -72 5 -16 15 -20 51 -20 l44 0 0 44
c0 31 -5 46 -16 50 -21 8 -46 7 -60 -2z"/>
<path d="M6983 4613 c-8 -3 -13 -23 -13 -49 l0 -44 44 0 c47 0 56 9 56 60 0
20 -6 29 -22 34 -26 7 -48 7 -65 -1z"/>
<path d="M2003 4563 c-7 -2 -13 -17 -13 -33 0 -37 19 -40 236 -40 104 0 175
-4 179 -10 9 -15 51 -12 65 5 18 22 4 64 -26 75 -25 10 -418 13 -441 3z"/>
<path d="M7760 4548 c-30 -33 -23 -72 13 -76 16 -2 35 2 43 8 9 8 84 14 221
19 l208 6 3 24 c2 13 -2 28 -10 32 -7 5 -113 9 -235 9 -217 0 -223 -1 -243
-22z"/>
<path d="M1160 4470 c-8 -5 -10 -10 -5 -10 6 0 17 5 25 10 8 5 11 10 5 10 -5
0 -17 -5 -25 -10z"/>
<path d="M1206 4471 c-4 -5 3 -7 14 -4 23 6 26 13 6 13 -8 0 -17 -4 -20 -9z"/>
<path d="M596 4353 c83 -369 265 -624 600 -843 95 -62 321 -176 330 -167 11
10 -15 36 -65 64 -88 50 -122 74 -116 83 4 6 -1 13 -9 16 -9 3 -16 12 -16 20
0 8 -5 14 -11 14 -5 0 -7 -4 -4 -10 3 -5 1 -10 -5 -10 -7 0 -9 7 -6 16 3 9 6
18 6 20 0 3 4 3 8 0 5 -3 8 8 7 24 -1 17 0 28 3 25 8 -8 43 15 37 25 -3 5 0
12 6 16 7 4 9 3 6 -2 -3 -6 2 -15 12 -21 15 -10 20 -8 29 11 8 17 7 27 -1 37
-10 11 -9 11 5 0 9 -7 14 -19 12 -26 -3 -7 3 -22 14 -33 24 -24 33 -11 27 36
-6 48 -89 216 -138 280 -66 85 -204 212 -303 278 -95 63 -227 124 -337 154
-95 26 -99 26 -91 -7z m739 -713 c-3 -5 -12 -10 -18 -10 -7 0 -6 4 3 10 19 12
23 12 15 0z m-40 -59 c3 -5 1 -12 -5 -16 -5 -3 -10 1 -10 9 0 18 6 21 15 7z"/>
<path d="M9564 4360 c-163 -39 -354 -144 -486 -269 -152 -144 -235 -264 -277
-405 -21 -69 -28 -121 -11 -81 5 11 9 14 9 7 1 -7 6 -10 11 -7 8 5 7 11 -1 21
-10 12 -9 13 5 8 9 -3 16 -10 16 -16 0 -5 5 -6 10 -3 6 4 7 11 4 17 -4 6 -2 8
4 4 5 -3 12 -1 14 5 2 6 14 2 28 -11 21 -18 22 -21 5 -15 -33 11 -37 11 -43
-4 -3 -10 1 -12 17 -8 15 3 24 -1 31 -14 6 -10 16 -19 22 -19 6 0 8 3 5 7 -7
7 11 33 23 33 4 0 12 -12 18 -26 7 -14 8 -23 3 -19 -15 8 -25 -15 -12 -28 19
-19 12 -27 -13 -17 -18 7 -26 5 -30 -6 -4 -9 -2 -12 5 -8 8 4 7 0 0 -15 -7
-11 -14 -21 -17 -21 -3 0 -2 6 2 13 4 6 -4 1 -18 -13 -14 -14 -51 -38 -82 -54
-57 -30 -94 -62 -83 -72 9 -9 275 127 369 188 221 146 402 358 489 573 30 75
79 237 79 261 0 14 -14 14 -96 -6z m-614 -710 c13 -8 12 -10 -4 -10 -12 0 -16
-5 -13 -14 3 -8 0 -20 -8 -26 -10 -8 -13 -5 -11 15 0 14 5 25 9 25 5 0 5 5 2
10 -8 13 5 13 25 0z"/>
<path d="M2000 4250 l0 -40 322 0 c278 0 328 -2 366 -17 37 -14 51 -15 88 -5
28 8 129 12 275 12 l230 0 -3 37 -3 37 -280 3 c-154 1 -441 5 -637 8 l-358 5
0 -40z"/>
<path d="M7540 4279 c-15 -7 -128 -9 -295 -7 l-270 3 0 -40 0 -40 230 3 c155
3 245 0 274 -8 36 -9 50 -9 82 4 33 13 92 16 354 16 342 0 338 -1 327 56 l-4
24 -337 -1 c-203 0 -346 -4 -361 -10z"/>
<path d="M1320 4243 c0 -40 38 -175 130 -469 99 -312 118 -365 175 -472 97
-183 367 -555 490 -677 5 -5 24 -25 40 -44 l30 -34 -61 41 c-71 47 -152 83
-249 108 -87 23 -404 26 -500 6 -87 -19 -125 -32 -125 -43 0 -21 190 -198 270
-251 94 -62 216 -126 300 -157 155 -57 385 -104 565 -116 50 -3 116 -8 148
-11 68 -7 75 7 15 31 -49 20 -59 21 -151 29 -38 3 -73 8 -78 12 -6 3 -17 0
-26 -8 -15 -11 -16 -11 -10 4 5 13 2 17 -11 15 -9 -1 -22 -6 -28 -10 -7 -4
-15 0 -18 9 -4 10 -2 13 6 8 7 -5 8 -3 4 5 -6 9 -13 8 -27 -5 -19 -17 -20 -17
-13 2 7 17 6 18 -11 4 -11 -9 -16 -10 -11 -2 8 14 -18 45 -29 34 -12 -11 6 20
23 41 13 15 13 17 -1 17 -8 0 -17 -6 -20 -12 -2 -7 -4 -1 -3 14 1 20 4 24 17
18 18 -10 89 -8 83 2 -3 4 4 11 13 17 16 9 16 10 -5 11 -13 0 -20 -4 -17 -10
3 -5 2 -10 -4 -10 -5 0 -13 5 -16 10 -3 6 -1 10 5 10 6 0 8 5 4 12 -4 7 -3 8
5 4 17 -11 63 2 55 15 -4 8 0 8 14 0 31 -17 37 -13 17 9 -10 11 -15 20 -12 20
4 0 64 -57 134 -127 150 -150 208 -195 426 -330 249 -155 367 -208 709 -319
115 -37 245 -88 301 -115 157 -81 224 -102 636 -204 191 -48 350 -99 434 -142
67 -33 68 -33 97 -16 17 9 30 20 30 23 0 9 -62 37 -150 70 -119 44 -309 95
-517 140 -367 79 -520 146 -697 310 l-50 45 24 -40 c13 -22 32 -49 42 -61 20
-23 25 -42 6 -26 -7 5 -89 35 -183 67 -334 113 -473 178 -702 328 -199 131
-298 216 -527 453 -228 235 -332 356 -453 528 -229 324 -300 490 -469 1101
-37 135 -49 165 -64 165 -5 0 -10 -12 -10 -27z m891 -1710 c13 -16 12 -17 -3
-4 -10 7 -18 15 -18 17 0 8 8 3 21 -13z m-6 -201 c-3 -3 -11 0 -18 7 -9 10 -8
11 6 5 10 -3 15 -9 12 -12z m-50 -110 c-3 -3 -11 0 -18 7 -9 10 -8 11 6 5 10
-3 15 -9 12 -12z"/>
<path d="M8901 4252 c-5 -10 -22 -65 -36 -123 -15 -57 -42 -156 -62 -219 -19
-63 -50 -165 -69 -227 -72 -237 -140 -377 -294 -606 -60 -89 -147 -210 -194
-268 -111 -139 -557 -588 -663 -667 -187 -141 -428 -281 -610 -353 -117 -46
-453 -158 -453 -151 1 4 14 23 30 42 50 58 34 54 -44 -9 -134 -111 -283 -183
-495 -237 -52 -13 -105 -26 -118 -28 -13 -3 -31 -7 -41 -10 -9 -3 -33 -7 -53
-10 -61 -9 -340 -82 -445 -117 -109 -36 -265 -113 -377 -185 -100 -65 -237
-173 -237 -188 0 -15 29 -56 40 -56 5 0 48 32 96 71 111 91 220 162 364 236
142 73 270 116 560 188 325 81 440 119 565 184 61 32 144 68 185 81 418 126
629 221 930 423 158 106 207 146 342 280 391 392 482 499 675 790 144 218 213
367 287 617 13 47 43 146 66 220 48 158 90 327 82 335 -10 10 -21 5 -31 -13z"/>
<path d="M2506 4143 c-54 -14 -104 -63 -124 -122 -45 -130 66 -262 205 -245
72 9 137 72 152 147 6 26 18 37 76 69 l70 37 197 -4 198 -4 0 40 0 39 -210 0
-210 0 -66 -32 c-50 -24 -68 -30 -72 -20 -7 22 -55 63 -97 83 -39 18 -79 22
-119 12z m107 -135 c25 -29 22 -74 -8 -103 -32 -33 -60 -31 -96 4 -37 37 -37
65 1 103 25 24 36 29 58 24 15 -4 35 -16 45 -28z"/>
<path d="M7634 4131 c-23 -10 -54 -35 -70 -55 -32 -40 -45 -40 -126 0 -45 23
-57 24 -258 24 l-210 0 0 -40 0 -40 204 0 203 0 77 -35 c65 -31 76 -39 76 -61
0 -60 62 -125 136 -142 68 -15 121 -3 169 40 48 41 65 77 65 135 -1 136 -146
231 -266 174z m139 -123 c24 -29 21 -70 -8 -102 -62 -67 -159 13 -114 95 22
42 89 46 122 7z"/>
<path d="M3099 3941 c-70 -4 -112 -11 -125 -21 -10 -8 -75 -66 -144 -130 -69
-63 -142 -130 -163 -148 l-38 -32 -115 0 c-109 0 -116 -1 -139 -25 -32 -31
-32 -59 0 -90 36 -37 52 -34 88 18 10 14 28 17 100 18 103 1 82 -12 313 197
l146 132 129 0 129 0 0 40 c0 31 -4 40 -17 40 -10 0 -27 2 -38 3 -11 2 -68 1
-126 -2z m78 -33 c-3 -8 -6 -5 -6 6 -1 11 2 17 5 13 3 -3 4 -12 1 -19z"/>
<path d="M6983 3943 c-7 -2 -13 -22 -13 -43 l0 -38 139 -4 139 -3 48 -45 c328
-302 288 -274 402 -278 86 -4 94 -6 102 -27 17 -44 71 -41 96 7 16 30 13 39
-19 76 -19 20 -29 22 -136 22 l-116 0 -172 159 c-187 173 -184 171 -311 171
-40 0 -61 -4 -57 -10 3 -5 2 -10 -3 -10 -6 0 -12 7 -16 15 -5 15 -56 20 -83 8z"/>
<path d="M8179 3760 c-184 -196 -315 -549 -323 -872 -4 -149 2 -208 20 -208 8
0 14 -5 14 -11 0 -8 6 -7 18 2 9 7 14 9 9 4 -8 -10 30 -55 47 -55 6 0 4 5 -4
10 -8 5 -11 10 -6 10 5 0 18 -7 28 -17 17 -15 18 -15 18 0 0 10 5 17 11 17 5
0 7 -6 3 -12 -23 -39 77 69 127 137 74 98 122 195 150 300 26 99 37 351 20
465 -13 84 -59 260 -72 275 -6 5 -29 -12 -60 -45z m-239 -1070 c0 -5 -2 -10
-4 -10 -3 0 -8 5 -11 10 -3 6 -1 10 4 10 6 0 11 -4 11 -10z"/>
<path d="M1991 3738 c-46 -140 -55 -207 -56 -383 0 -130 4 -187 18 -244 39
-162 111 -303 207 -408 58 -63 96 -89 103 -71 4 10 6 10 6 1 1 -7 8 -13 17
-13 9 0 12 5 8 12 -5 7 -3 8 5 4 7 -5 18 0 27 10 13 18 14 18 8 -1 -7 -19 -6
-20 8 -1 8 10 20 16 26 12 12 -7 16 3 13 39 -2 17 0 17 8 5 14 -20 14 -4 0 22
-8 15 -8 19 0 14 14 -9 14 140 0 274 -19 181 -91 410 -178 565 -44 79 -164
225 -185 225 -9 0 -23 -26 -35 -62z m377 -1051 c8 -10 6 -13 -9 -14 -19 -2
-25 8 -12 20 8 9 9 9 21 -6z"/>
<path d="M2874 3666 l-29 -25 233 -228 233 -228 -3 -114 -3 -113 -161 156
c-159 154 -162 157 -166 205 -12 119 -135 181 -231 116 -97 -66 -93 -205 9
-262 51 -29 90 -29 147 2 l46 24 29 -27 c16 -15 97 -94 180 -176 l152 -150 0
-139 0 -140 41 -38 c48 -44 64 -44 194 2 78 28 80 28 98 10 17 -16 19 -35 18
-177 -1 -88 2 -164 7 -171 4 -6 21 -13 37 -15 l30 -3 3 153 3 152 38 0 c50 0
99 21 132 57 39 42 49 66 49 123 0 119 -93 202 -208 186 -91 -12 -152 -80
-152 -170 0 -25 -2 -46 -4 -46 -3 0 -41 -13 -86 -30 l-81 -30 -25 25 c-23 24
-25 32 -24 118 1 50 1 185 1 298 l-1 207 -147 149 c-82 82 -189 188 -239 236
l-92 88 -28 -25z m-11 -297 c30 -16 37 -28 37 -66 0 -34 -37 -73 -70 -73 -10
0 -29 9 -44 21 -36 28 -36 80 0 108 30 24 46 26 77 10z m961 -650 c34 -27 35
-71 1 -104 -39 -39 -86 -32 -111 17 -20 39 -11 74 24 92 37 21 55 20 86 -5z"/>
<path d="M7114 3458 l-234 -233 -1 -170 c-1 -93 -3 -201 -4 -240 -2 -38 -4
-104 -4 -146 -1 -101 -13 -108 -125 -68 -44 16 -81 29 -83 29 -1 0 -3 18 -3
40 0 116 -124 207 -233 171 -106 -35 -156 -153 -108 -256 21 -47 44 -69 91
-89 40 -16 39 -16 81 -16 l30 0 -2 -77 c-1 -43 -1 -113 0 -156 l1 -78 33 3 32
3 3 169 c3 225 5 227 141 180 110 -38 138 -35 183 16 l38 43 0 136 1 136 52
50 c29 28 109 106 180 175 111 109 129 123 145 113 50 -36 72 -43 118 -36 121
16 173 156 92 249 -56 64 -152 68 -217 9 -30 -28 -36 -41 -41 -87 l-5 -53
-163 -160 -162 -159 0 118 0 118 230 227 230 227 -23 22 c-13 12 -27 22 -31
22 -4 0 -113 -105 -242 -232z m361 -103 c14 -13 25 -35 25 -48 0 -28 -45 -77
-71 -77 -28 0 -79 49 -79 76 0 33 42 74 75 74 14 0 37 -11 50 -25z m-940 -641
c30 -33 32 -63 4 -98 -41 -53 -129 -18 -129 51 0 32 42 73 75 73 15 0 36 -11
50 -26z"/>
<path d="M1330 3590 c0 -5 7 -7 15 -4 8 4 15 8 15 10 0 2 -7 4 -15 4 -8 0 -15
-4 -15 -10z"/>
<path d="M8945 3580 c3 -5 8 -10 11 -10 2 0 4 5 4 10 0 6 -5 10 -11 10 -5 0
-7 -4 -4 -10z"/>
<path d="M828 3393 c-21 -2 -38 -6 -38 -9 0 -12 82 -125 135 -184 194 -221
446 -364 769 -437 142 -32 173 -27 81 11 -38 17 -73 35 -77 40 -4 6 -8 7 -8 2
0 -6 -5 -5 -11 1 -6 6 -19 9 -28 6 -9 -3 -12 -1 -6 4 16 13 16 31 0 37 -10 3
-12 0 -8 -11 4 -10 2 -14 -4 -10 -6 4 -13 1 -16 -5 -2 -7 -3 3 -3 22 1 19 5
40 9 47 4 6 4 19 0 30 -3 10 -3 15 2 11 4 -4 13 0 20 9 7 9 24 17 38 19 29 3
34 -5 16 -23 -6 -6 -8 -16 -4 -22 10 -17 25 -3 18 16 -4 11 -3 14 5 9 8 -4 12
0 12 11 1 17 2 16 16 -2 16 -20 16 -20 9 3 -7 23 -6 23 14 5 23 -19 28 -28 9
-17 -7 4 -8 3 -4 -5 9 -14 26 -5 26 13 0 26 -82 138 -148 204 -99 99 -260 173
-449 208 -88 16 -304 26 -375 17z m752 -463 c0 -11 5 -20 11 -20 6 0 9 7 5 15
-3 8 -1 15 3 15 5 0 11 -6 14 -14 6 -15 -11 -36 -29 -36 -7 0 -14 -5 -16 -12
-2 -6 -4 7 -4 30 1 23 4 42 9 42 4 0 7 -9 7 -20z m-25 -8 c-3 -3 -11 0 -18 7
-9 10 -8 11 6 5 10 -3 15 -9 12 -12z m55 -56 c0 -2 -8 -10 -17 -17 -16 -13
-17 -12 -4 4 13 16 21 21 21 13z"/>
<path d="M9160 3394 c-265 -32 -441 -104 -568 -231 -79 -80 -160 -195 -141
-202 6 -2 15 3 20 10 6 10 10 7 18 -11 5 -14 10 -19 10 -12 1 18 21 15 29 -5
8 -21 43 -27 35 -7 -3 8 -9 12 -14 9 -4 -3 -13 4 -19 15 -7 13 -7 20 0 20 5 0
10 -7 10 -15 0 -12 4 -14 17 -6 14 7 20 4 30 -17 11 -23 13 -24 9 -4 -5 27 10
30 17 2 3 -11 12 -20 21 -20 9 0 16 -5 16 -11 0 -5 -5 -7 -12 -3 -8 5 -9 2 -5
-10 4 -10 7 -20 7 -23 0 -3 6 0 14 6 11 9 16 9 22 0 4 -7 3 -9 -4 -5 -6 3 -14
1 -17 -5 -4 -5 -13 -8 -20 -5 -8 3 -11 -2 -8 -13 4 -15 -1 -18 -20 -16 -19 2
-24 -1 -20 -12 5 -13 3 -13 -16 -4 -15 8 -20 8 -19 1 2 -6 -28 -24 -67 -41
-90 -39 -99 -48 -34 -38 175 28 413 110 556 193 43 25 116 76 163 113 118 95
300 316 278 338 -7 8 -240 15 -288 9z m-470 -491 c-11 -17 -11 -17 -6 0 3 10
6 24 7 30 0 9 2 9 5 0 3 -7 0 -20 -6 -30z"/>
<path d="M2633 2843 c13 -310 109 -575 278 -766 65 -75 237 -197 277 -197 3 0
-6 13 -21 28 -22 22 -24 31 -14 41 10 10 8 11 -7 5 -13 -5 -17 -4 -12 4 4 7 2
12 -4 12 -6 0 -8 5 -5 10 4 6 2 17 -4 24 -7 8 -10 20 -9 27 2 8 -3 13 -9 12
-7 -2 -13 2 -13 7 0 13 23 13 37 -1 17 -17 36 0 30 27 -3 19 -2 22 9 13 8 -6
11 -15 8 -20 -3 -5 -1 -9 5 -9 5 0 12 4 16 10 3 5 12 7 20 4 8 -4 12 -10 9
-15 -3 -5 0 -9 6 -9 6 0 10 8 8 18 -2 11 3 16 14 14 15 -2 15 2 2 60 -49 212
-115 358 -230 508 -47 62 -153 172 -217 224 -47 39 -156 106 -170 106 -6 0 -8
-52 -4 -137z"/>
<path d="M7546 2945 c-292 -175 -525 -544 -551 -870 -2 -22 -1 -33 2 -25 4 8
12 21 20 28 11 11 13 11 14 0 1 -7 1 -17 0 -22 -1 -5 4 -4 11 2 8 6 24 9 35 6
19 -5 20 -10 12 -33 l-9 -26 22 25 c13 15 19 18 15 8 -3 -10 -2 -20 2 -23 12
-7 23 24 14 37 -3 7 -1 8 5 4 17 -10 15 -26 -5 -49 -10 -11 -12 -17 -5 -13 7
4 12 2 12 -5 0 -6 -8 -9 -20 -6 -16 4 -18 1 -14 -23 5 -21 0 -32 -22 -49 -15
-12 -24 -24 -20 -28 18 -18 169 83 254 168 134 137 240 351 276 560 18 106 32
369 19 369 -5 0 -35 -16 -67 -35z m-451 -833 c-3 -3 -11 0 -18 7 -9 10 -8 11
6 5 10 -3 15 -9 12 -12z m55 -146 c0 -3 -4 -8 -10 -11 -5 -3 -10 -1 -10 4 0 6
5 11 10 11 6 0 10 -2 10 -4z"/>
<path d="M1653 2943 c-7 -15 -11 -29 -8 -31 3 -3 5 0 5 6 0 7 6 12 14 12 8 0
13 7 12 15 -4 25 -11 24 -23 -2z"/>
<path d="M1630 2896 c0 -2 7 -7 16 -10 8 -3 12 -2 9 4 -6 10 -25 14 -25 6z"/>
<path d="M4228 2718 c0 -101 -2 -262 -4 -358 l-2 -174 -86 -84 c-47 -47 -86
-90 -86 -97 0 -7 11 -20 25 -29 24 -16 25 -15 125 86 l100 103 0 367 0 368
-35 0 -35 0 -2 -182z"/>
<path d="M4420 2487 l0 -413 -105 -103 c-108 -106 -116 -121 -79 -152 13 -11
32 4 125 97 61 60 115 117 120 127 10 17 11 83 10 595 l-1 262 -35 0 -35 0 0
-413z"/>
<path d="M4600 2434 l0 -466 -130 -131 c-126 -127 -129 -131 -115 -154 9 -13
22 -23 29 -23 7 0 75 63 150 140 l136 140 0 480 0 480 -35 0 -35 0 0 -466z"/>
<path d="M4780 2141 c0 -823 -3 -771 51 -771 19 0 19 18 19 765 l0 765 -35 0
-35 0 0 -759z"/>
<path d="M4970 2120 l0 -780 35 0 35 0 0 780 0 780 -35 0 -35 0 0 -780z"/>
<path d="M5220 2120 c0 -617 3 -780 13 -780 6 0 22 3 35 6 l22 6 0 774 0 774
-35 0 -35 0 0 -780z"/>
<path d="M5407 2893 c-8 -14 -6 -1498 2 -1511 5 -8 18 -10 39 -6 l32 7 0 758
0 759 -34 0 c-19 0 -37 -3 -39 -7z"/>
<path d="M5590 2898 c0 -2 -2 -216 -5 -477 l-3 -474 127 -136 c165 -175 154
-167 180 -140 12 13 21 27 21 33 0 5 -56 67 -125 137 l-125 127 0 466 0 466
-35 0 c-19 0 -35 -1 -35 -2z"/>
<path d="M5768 2483 c-2 -230 -1 -423 2 -429 3 -7 56 -65 119 -130 l114 -118
24 28 24 29 -105 107 -106 107 0 412 0 411 -34 0 -35 0 -3 -417z"/>
<path d="M5959 2893 c0 -4 -1 -172 -1 -372 l0 -364 101 -101 101 -101 27 27
27 27 -90 90 -89 91 -5 352 -5 353 -32 3 c-18 2 -33 0 -34 -5z"/>
<path d="M8485 2714 c-227 -35 -385 -121 -510 -276 -20 -27 -33 -48 -29 -48 5
0 2 -5 -6 -10 -9 -6 -10 -10 -3 -10 6 0 19 -3 28 -7 14 -5 16 -2 10 17 l-7 23
23 -22 c12 -11 31 -21 41 -21 12 0 18 -7 18 -21 0 -13 8 -23 21 -26 12 -4 18
-11 15 -20 -6 -15 17 -46 27 -37 3 3 4 -1 3 -10 -1 -8 -6 -19 -11 -23 -4 -4
-5 -2 -1 5 4 6 2 12 -3 12 -6 0 -11 -5 -11 -11 0 -5 -5 -7 -12 -3 -7 5 -9 2
-5 -9 5 -13 -1 -15 -34 -13 -21 2 -39 0 -39 -4 0 -5 -10 -6 -22 -2 -16 4 -19
2 -13 -9 8 -12 6 -12 -8 0 -13 10 -17 10 -17 1 0 -7 -8 -10 -20 -7 -10 3 -21
0 -24 -7 -3 -7 -5 -7 -5 2 -1 7 -5 11 -9 8 -5 -3 -37 -8 -73 -12 -77 -8 -77
-8 -111 -22 -47 -19 -34 -34 25 -28 28 3 95 8 147 11 320 21 631 114 850 255
130 85 308 264 278 281 -7 4 -49 15 -93 24 -78 17 -353 29 -420 19z m-354
-394 c8 0 8 5 -1 15 -7 8 -10 15 -8 15 3 0 13 -10 24 -22 10 -13 15 -20 10
-16 -5 4 -15 3 -23 -3 -10 -9 -13 -8 -13 1 0 8 -3 10 -7 7 -3 -4 -12 1 -19 11
-20 26 -16 34 6 12 11 -11 25 -20 31 -20z m-21 -36 c0 -8 -5 -12 -10 -9 -6 4
-8 11 -5 16 9 14 15 11 15 -7z"/>
<path d="M2160 2271 c0 -5 7 -11 14 -14 10 -4 13 -1 9 9 -6 15 -23 19 -23 5z"/>
<path d="M3470 2139 c0 -19 52 -145 92 -222 32 -63 62 -101 127 -165 98 -96
201 -168 213 -149 6 9 8 9 8 0 0 -7 5 -13 11 -13 5 0 7 5 4 10 -3 6 -1 10 4
10 6 0 11 -4 11 -10 0 -5 7 -10 15 -10 8 0 15 -5 15 -12 0 -6 3 -8 7 -4 5 4
-1 15 -12 23 -19 15 -19 15 8 9 16 -4 27 -2 27 4 0 5 -7 10 -16 10 -8 0 -12 5
-9 10 9 14 45 13 45 -2 0 -6 7 -3 15 8 8 10 15 15 15 11 0 -4 9 -3 20 3 14 7
20 7 20 0 0 -5 -6 -10 -14 -10 -8 0 -17 -8 -21 -17 -5 -14 -4 -15 6 -6 10 10
15 9 26 -5 14 -16 14 -16 8 3 -5 16 -4 17 6 8 9 -9 16 -9 25 -2 10 8 12 6 9
-9 -2 -15 2 -20 13 -20 9 1 28 -2 41 -6 20 -7 23 -5 19 11 -3 11 0 20 6 20 14
0 15 -36 2 -56 -7 -11 -4 -13 15 -9 13 3 33 9 44 14 17 6 18 5 8 -7 -9 -11 -7
-16 13 -26 33 -15 32 2 -6 76 -69 138 -239 305 -406 401 -118 68 -414 160
-414 129z m520 -473 c0 -3 -4 -8 -10 -11 -5 -3 -10 -1 -10 4 0 6 5 11 10 11 6
0 10 -2 10 -4z m-74 -25 c11 9 14 8 14 -4 0 -18 -33 -16 -36 2 -2 7 0 7 3 1 3
-8 9 -7 19 1z m44 5 c0 -3 -4 -8 -10 -11 -5 -3 -10 -1 -10 4 0 6 5 11 10 11 6
0 10 -2 10 -4z m220 -26 c0 -5 -5 -10 -11 -10 -5 0 -7 5 -4 10 3 6 8 10 11 10
2 0 4 -4 4 -10z m71 -33 c-10 -9 -11 -8 -5 6 3 10 9 15 12 12 3 -3 0 -11 -7
-18z"/>
<path d="M6651 2119 c-253 -68 -467 -207 -607 -392 -57 -76 -117 -194 -104
-202 6 -3 10 -1 10 4 0 6 4 11 10 11 5 0 7 -8 5 -17 -3 -10 1 -6 8 10 7 15 17
24 22 20 4 -5 5 1 2 12 -7 19 -6 19 7 2 14 -18 15 -18 27 5 8 14 14 18 17 10
2 -6 8 -10 12 -7 5 3 7 12 3 20 -6 18 13 20 20 3 4 -10 8 -9 16 2 8 12 11 12
11 1 0 -11 3 -11 15 -1 12 10 15 10 15 0 0 -10 3 -10 15 0 11 9 13 16 5 24 -5
5 -10 17 -9 26 0 10 4 7 11 -7 6 -13 17 -23 25 -23 7 0 13 -6 13 -12 0 -7 8
-3 18 10 19 25 34 21 26 -6 -5 -14 -4 -14 6 1 6 9 9 27 6 40 -4 13 0 10 8 -8
9 -18 11 -34 5 -39 -5 -6 -9 -14 -9 -20 0 -5 6 -1 14 10 11 14 17 16 27 7 12
-12 42 -6 34 7 -3 5 -1 11 4 14 11 7 9 -13 -2 -31 -12 -18 25 -3 40 16 7 9 13
12 13 8 0 -10 67 36 134 91 27 23 54 38 60 35 6 -3 8 -3 4 1 -3 4 11 31 33 59
60 80 159 283 159 327 0 15 -47 11 -129 -11z m-329 -491 c-5 -5 -18 -8 -28 -5
-17 4 -17 6 4 12 25 8 30 25 7 25 -13 0 -14 2 -3 14 11 12 14 10 22 -11 5 -15
4 -29 -2 -35z m-118 26 c8 -22 8 -39 -1 -30 -5 4 -8 11 -8 14 0 4 -4 13 -8 20
-5 6 -4 12 1 12 6 0 13 -7 16 -16z"/>
<path d="M2070 2089 c-89 -11 -317 -54 -379 -73 l-44 -13 38 -37 c94 -95 245
-183 391 -230 136 -44 230 -58 379 -60 164 -1 182 1 353 50 28 8 29 19 1 21
-28 2 -34 10 -22 25 5 7 6 24 2 38 -4 14 -7 19 -8 13 -1 -7 -7 -13 -13 -13 -7
1 1 12 17 25 26 22 27 30 4 27 -4 -1 -9 8 -12 19 -5 19 -4 20 12 5 19 -18 41
-21 41 -7 0 5 -6 12 -12 15 -7 3 0 3 17 0 l30 -6 -25 22 -25 22 30 -8 30 -7
-35 31 c-39 35 -133 88 -183 104 -124 38 -417 57 -587 37z m670 -299 c0 -5 -5
-10 -11 -10 -5 0 -7 5 -4 10 3 6 8 10 11 10 2 0 4 -4 4 -10z m40 -15 c-7 -8
-14 -15 -15 -15 -2 0 -5 7 -9 15 -4 10 1 15 16 15 17 0 18 -2 8 -15z"/>
<path d="M7779 2090 c-97 -10 -233 -50 -296 -86 -54 -31 -103 -73 -103 -87 0
-8 3 -8 8 -2 14 19 30 14 30 -11 0 -21 -3 -23 -17 -12 -14 12 -14 11 -2 -5 10
-12 17 -14 26 -7 20 17 43 2 38 -24 -3 -13 0 -27 6 -30 13 -9 15 -36 2 -36 -5
0 -12 8 -14 18 -4 15 -5 15 -6 0 0 -9 3 -19 9 -23 6 -3 5 -15 -2 -31 -14 -31
-5 -39 67 -54 276 -60 558 -23 815 105 127 64 260 170 245 195 -6 10 -237 65
-315 76 -30 4 -66 8 -80 10 -67 9 -335 12 -411 4z m-279 -281 c-5 -18 -12 -34
-16 -38 -4 -3 -4 2 -1 12 4 10 7 27 7 38 0 10 4 19 9 19 6 0 6 -12 1 -31z m33
1 c3 -11 1 -18 -4 -14 -5 3 -9 12 -9 20 0 20 7 17 13 -6z m-16 -35 c0 -8 -4
-12 -9 -9 -5 3 -6 10 -3 15 9 13 12 11 12 -6z"/>
<path d="M7435 1768 c5 -13 2 -18 -10 -18 -9 0 -13 -4 -10 -10 3 -5 10 -10 15
-10 14 0 21 33 10 44 -8 8 -9 6 -5 -6z"/>
<path d="M3141 1669 c-208 -37 -485 -184 -650 -346 -86 -85 -87 -83 30 -109
120 -25 327 -30 450 -10 112 19 249 61 327 100 74 38 202 137 250 194 l43 52
-27 24 c-15 13 -71 40 -123 61 -106 42 -197 52 -300 34z"/>
<path d="M6890 1665 c-59 -17 -182 -74 -214 -99 -19 -16 -19 -17 20 -58 94
-99 164 -152 276 -209 221 -112 554 -139 821 -68 l38 10 -32 37 c-82 97 -267
231 -414 303 -164 79 -381 116 -495 84z"/>
<path d="M3811 1349 c-236 -50 -481 -182 -671 -359 -75 -71 -76 -69 50 -96
127 -28 392 -26 514 5 189 46 352 135 458 249 51 55 108 162 87 162 -5 0 -18
9 -29 20 -12 12 -25 18 -30 15 -6 -4 -10 -1 -10 6 0 8 -4 8 -15 -1 -8 -7 -15
-8 -15 -3 0 13 -6 13 -135 18 -85 3 -132 0 -204 -16z"/>
<path d="M6116 1362 c-3 -5 -17 -8 -31 -7 -14 2 -25 -1 -25 -6 0 -6 -4 -7 -10
-4 -5 3 -10 1 -10 -4 0 -6 -7 -11 -15 -11 -9 0 -12 -6 -8 -17 4 -11 3 -14 -5
-9 -19 12 -14 -16 14 -72 28 -56 103 -130 196 -194 234 -158 601 -211 907
-128 30 8 39 15 34 24 -17 28 -153 140 -251 207 -222 152 -414 218 -654 225
-75 3 -139 0 -142 -4z"/>
<path d="M5205 1076 c-16 -13 -28 -26 -25 -28 3 -3 28 -20 55 -38 28 -19 92
-65 144 -103 l95 -70 18 23 c26 33 23 42 -29 82 -63 46 -221 158 -225 158 -2
0 -16 -11 -33 -24z"/>
<path d="M4365 1061 c-102 -47 -143 -166 -94 -268 60 -124 258 -134 330 -16
48 77 43 160 -14 229 -57 69 -145 91 -222 55z m132 -123 c31 -29 31 -77 -2
-108 -35 -33 -81 -31 -112 4 -28 34 -29 65 -2 100 27 34 82 36 116 4z"/>
<path d="M5750 1067 c-71 -23 -130 -111 -130 -193 1 -98 98 -184 205 -184 117
1 215 139 174 247 -21 58 -60 101 -109 122 -53 23 -87 25 -140 8z m122 -124
c64 -56 -5 -165 -84 -132 -35 14 -48 37 -48 82 0 66 78 96 132 50z"/>
<path d="M5020 788 c-1 -114 -4 -159 -15 -178 -36 -63 -7 -147 61 -181 96 -46
194 15 194 121 -1 25 -7 56 -15 70 -11 18 -14 64 -15 173 l0 147 -35 0 -35 0
0 -133 0 -134 -35 1 -35 1 0 133 0 132 -35 0 -35 0 0 -152z m145 -202 c21 -22
23 -28 14 -55 -12 -33 -38 -46 -74 -37 -44 11 -45 88 -2 106 32 13 36 12 62
-14z"/>
</g>
</svg>
